<?xml version="1.0" standalone="no"?>
<!DOCTYPE svg PUBLIC "-//W3C//DTD SVG 1.1//EN" "http://www.w3.org/Graphics/SVG/1.1/DTD/svg11.dtd" >
<svg xmlns="http://www.w3.org/2000/svg">
<metadata>
This is a custom SVG webfont generated by Font Squirrel.
Copyright   : Copyright c 2008 by Village Type  Design LLC All rights reserved
Designer    : Chester Jenkins  Village
Foundry     : Village Type  Design LLC
Foundry URL : httpvllgcom
</metadata>
<defs>
<font id="GalaxiePolarisCondensedHeavy" horiz-adv-x="1064" >
<font-face units-per-em="2048" ascent="1638" descent="-410" />
<missing-glyph horiz-adv-x="329" />
<glyph unicode=" "  horiz-adv-x="329" />
<glyph unicode="&#x09;" horiz-adv-x="329" />
<glyph unicode="&#xa0;" horiz-adv-x="329" />
<glyph unicode="!" horiz-adv-x="542" d="M72 1597h399l-57 -1089h-285zM88 0v362h367v-362h-367z" />
<glyph unicode="&#x22;" horiz-adv-x="1013" d="M66 1597h415l-51 -512h-313zM535 1597h413l-51 -512h-311z" />
<glyph unicode="#" d="M37 324v325h133l43 266h-100v326h157l54 324h288l-55 -324h105l55 324h289l-56 -324h78v-326h-133l-43 -266h100v-325h-157l-54 -324h-288l55 324h-105l-55 -324h-289l56 324h-78zM457 649h106l45 266h-106z" />
<glyph unicode="$" horiz-adv-x="956" d="M39 303l94 309q172 -96 328 -96q119 0 119 70q0 37 -29 53t-107 25q-86 8 -140 20t-111.5 46t-85 100.5t-27.5 168.5q0 193 104.5 274t294.5 85l60 207h311l-68 -226q68 -14 144 -51l-82 -309q-123 76 -285 76q-111 0 -110 -64q0 -33 24.5 -47t87.5 -22q70 -8 108 -14.5 t96 -28t88 -55t53.5 -96t23.5 -150.5q0 -201 -106.5 -284t-311.5 -87l-59 -207h-314l72 236q-106 28 -172 67z" />
<glyph unicode="%" horiz-adv-x="1918" d="M74 1144.5q0 237.5 79.5 341t282.5 103.5t283 -103.5t80 -341t-80 -340t-283 -102.5t-282.5 102.5t-79.5 340zM354 1144.5q0 -104.5 17.5 -139t64.5 -34.5q49 0 65.5 34.5t16.5 139t-17.5 140.5t-64.5 36t-64.5 -36t-17.5 -140.5zM393 0l801 1565h330l-801 -1565h-330z M1120 420q0 238 80 340t283 102t282.5 -102.5t79.5 -340t-79.5 -341t-282.5 -103.5t-283 102.5t-80 342.5zM1401 419.5q0 -104.5 17.5 -140t64.5 -35.5t64.5 35.5t17.5 140t-17.5 139.5t-64.5 35q-49 0 -65.5 -35t-16.5 -139.5z" />
<glyph unicode="&#x26;" horiz-adv-x="1153" d="M51 440q0 229 158 400q-106 217 -107 387q0 199 95.5 297t306.5 98q199 0 280.5 -89t81.5 -261q0 -135 -62.5 -234.5t-195.5 -214.5q82 -106 168 -186q8 86 8 143q0 84 -14 142l297 34q23 -72 23 -172q0 -190 -48 -348q31 -20 60 -35v-426q-158 100 -232 156 q-152 -156 -381 -156q-221 0 -329.5 131t-108.5 334zM393 479q0 -193 133 -192q59 0 111 37q-117 109 -234 247q-10 -47 -10 -92zM444 1210q0 -72 27 -151q100 86 100 151q0 96 -59 97q-68 -1 -68 -97z" />
<glyph unicode="'" horiz-adv-x="546" d="M66 1597h415l-51 -512h-313z" />
<glyph unicode="(" horiz-adv-x="669" d="M63 717q0 289 63.5 552t162.5 431h356q-213 -463 -213 -983t213 -983h-356q-98 168 -162 431t-64 552z" />
<glyph unicode=")" horiz-adv-x="669" d="M25 -266q213 463 213 983t-213 983h356q98 -168 161.5 -431t63.5 -552t-63.5 -552t-161.5 -431h-356z" />
<glyph unicode="*" horiz-adv-x="755" d="M53 1284l70 217l158 -71l-17 167h228l-19 -167l160 71l69 -217l-147 -31l96 -106l-186 -133l-88 151l-86 -151l-187 133l97 106z" />
<glyph unicode="+" horiz-adv-x="1474" d="M184 631v336h385v385h336v-385h385v-336h-385v-385h-336v385h-385z" />
<glyph unicode="," horiz-adv-x="542" d="M43 -223l45 585h381l-150 -585h-276z" />
<glyph unicode="-" horiz-adv-x="843" d="M111 518v336h622v-336h-622z" />
<glyph unicode="." horiz-adv-x="542" d="M88 0v362h367v-362h-367z" />
<glyph unicode="/" horiz-adv-x="872" d="M18 -184l469 1966h367l-469 -1966h-367z" />
<glyph unicode="0" d="M76 782q0 340 43 511t136 233.5t277.5 62.5t277.5 -62.5t136 -233.5t43 -511t-43 -511t-136 -233.5t-277.5 -62.5t-277.5 62.5t-136 233.5t-43 511zM440 782q0 -166 3 -256t14.5 -144t28 -68.5t47 -14.5t47 14.5t27.5 68.5t14.5 144t3.5 256t-3.5 256t-14.5 144.5 t-27.5 69t-47 14.5t-47 -14.5t-28 -69t-14.5 -144.5t-3 -256z" />
<glyph unicode="1" d="M92 930v368q113 31 213.5 116t140.5 175h287v-1265h260v-324h-880v324h260v745q-99 -102 -281 -139z" />
<glyph unicode="2" d="M74 0q0 121 1 184.5t6 144.5t13 120.5t27.5 94t43 84t64.5 73.5t87 78l116 83q106 74 144 125t38 137q0 82 -15 114t-60 32q-41 0 -60.5 -51.5t-19.5 -194.5l-363 45q0 119 8.5 191.5t34 142.5t74.5 106.5t131 58t205 21.5q246 0 337 -96t91 -342q0 -109 -12.5 -174.5 t-59.5 -128t-99 -105.5t-173 -131q-115 -84 -145.5 -138t-30.5 -150h530v-324h-913z" />
<glyph unicode="3" d="M66 496l352 47q0 -147 23.5 -197.5t88.5 -50.5q61 0 82 42t21 138q0 98 -26.5 132t-94.5 34h-111v322h111q45 0 58.5 27.5t13.5 117.5q0 100 -13.5 131t-60.5 31q-51 0 -64.5 -43t-13.5 -185l-354 45q4 274 94 388t344 114q229 0 329.5 -98t100.5 -342 q0 -156 -31.5 -227.5t-103.5 -108.5q96 -25 141 -110t45 -265q0 -225 -106.5 -344t-372.5 -119q-145 0 -237.5 33t-138.5 106.5t-61 160t-15 221.5z" />
<glyph unicode="4" d="M53 330v268l441 991h409v-934h109v-325h-109v-330h-348v330h-502zM375 647l180 8l18 496z" />
<glyph unicode="5" d="M68 465l364 47q2 -137 21.5 -177t78.5 -40q57 0 81 52t24 177q0 152 -23.5 203t-83.5 51q-45 0 -83.5 -32.5t-57.5 -86.5l-303 46l41 860h813v-328h-496l-12 -260q94 109 234 108q168 0 250.5 -124.5t82.5 -436.5q0 -307 -112.5 -428t-364.5 -121q-256 0 -355 109 t-99 381z" />
<glyph unicode="6" d="M80 780q0 176 8 291t37 222.5t80 167t137 94t211 34.5q236 0 324 -94t92 -321l-363 -48q-4 94 -16 123t-62 29q-55 0 -68.5 -64.5t-13.5 -287.5q45 82 104.5 114.5t149.5 32.5q168 0 226.5 -121t58.5 -417q0 -293 -100.5 -426.5t-354.5 -133.5q-119 0 -197.5 30 t-129.5 84t-78 157.5t-36 224.5t-9 309zM449 655q0 -205 18 -286.5t63 -81.5q59 0 74 48t15 187q0 131 -13.5 184.5t-54.5 53.5q-20 0 -33.5 -4t-27 -23.5t-18.5 -29t-23 -48.5z" />
<glyph unicode="7" d="M61 1237v328h951v-217l-414 -1348h-391l323 956l101 283l-219 -2h-351z" />
<glyph unicode="8" d="M53 420q0 317 168 395q-66 31 -102.5 121t-36.5 215q0 240 101.5 339t349 99t349 -99t101.5 -339q0 -125 -37 -215t-102 -121q168 -78 168 -395q0 -221 -103.5 -333t-376 -112t-376 112t-103.5 333zM406 475q0 -94 27.5 -135t99 -41t99 41t27.5 135q0 109 -30.5 144.5 t-96 35.5t-96 -35.5t-30.5 -144.5zM440 1110q0 -160 92.5 -160t92.5 160q0 86 -21.5 120t-71 34t-71 -34t-21.5 -120z" />
<glyph unicode="9" d="M80 1030q0 293 100.5 426t354.5 133q119 0 197.5 -29.5t129.5 -84t78 -158t36 -224t9 -309.5q0 -176 -8 -290.5t-37 -222t-80 -167t-137 -94.5t-211 -35q-236 0 -324 94.5t-92 321.5l363 47q4 -94 16 -122.5t62 -28.5q55 0 68 56t13 275q-43 -74 -102 -100t-151 -26 q-156 0 -220.5 124.5t-64.5 413.5zM446 1042q0 -238 68 -237q66 0 102 84q0 207 -18 298t-63 91q-59 0 -74 -48.5t-15 -187.5z" />
<glyph unicode=":" horiz-adv-x="542" d="M88 0v362h367v-362h-367zM88 653v361h367v-361h-367z" />
<glyph unicode=";" horiz-adv-x="542" d="M43 -223l45 585h381l-150 -585h-276zM88 653v361h367v-361h-367z" />
<glyph unicode="&#x3c;" horiz-adv-x="1474" d="M184 604v389l1106 379v-356l-553 -162l-215 -55l215 -56l553 -161v-357z" />
<glyph unicode="=" horiz-adv-x="1474" d="M184 385v336h1106v-336h-1106zM184 877v335h1106v-335h-1106z" />
<glyph unicode="&#x3e;" horiz-adv-x="1474" d="M184 225v357l553 161l215 56l-215 55l-553 162v356l1106 -379v-389z" />
<glyph unicode="?" d="M53 1114q0 272 101.5 394t373.5 122q256 0 367 -97t111 -333q0 -84 -18.5 -149.5t-40 -104.5t-71 -77t-79.5 -54l-97 -49q-59 -29 -78.5 -60.5t-19.5 -82.5q0 -57 21 -115h-252q-18 23 -41 86t-23 125q0 102 45 163.5t178 129.5q55 29 78 65.5t23 100.5q0 68 -22.5 97.5 t-78.5 29.5q-70 0 -98.5 -49.5t-28.5 -184.5zM315 0v362h367v-362h-367z" />
<glyph unicode="@" horiz-adv-x="2105" d="M82 604q0 498 251 768t763 270q248 0 430 -62t289.5 -178t157.5 -266.5t50 -338.5q0 -342 -138 -508t-460 -166h-225l-14 94q-88 -119 -246 -119q-199 0 -291 121t-92 385t92 385t291 121q162 0 250 -119l10 94h316l-9 -251v-412q102 2 136 88t34 287q0 143 -22.5 236 t-86 164t-178 102.5t-294.5 31.5q-352 0 -506 -166t-154 -561q0 -397 157 -562t525 -165q395 0 766 170l127 -280q-365 -201 -893 -201t-782 269t-254 769zM913 604.5q0 -190.5 115 -190.5q82 0 123 78v225q-41 78 -123 78q-115 0 -115 -190.5z" />
<glyph unicode="A" horiz-adv-x="1081" d="M23 0l239 1610h555l242 -1610h-373l-31 256h-231l-29 -256h-372zM457 555h166l-82 725z" />
<glyph unicode="B" horiz-adv-x="1179" d="M106 0v1597h582q84 0 147.5 -17t121 -62t88 -135.5t30.5 -221.5q0 -250 -139 -319q190 -43 190 -369q0 -258 -106.5 -365.5t-319.5 -107.5h-594zM475 328h148q66 0 98.5 32.5t32.5 122.5q0 170 -123 170h-156v-325zM475 979h125q102 0 102 149q0 82 -25.5 112t-76.5 30 h-125v-291z" />
<glyph unicode="C" horiz-adv-x="1179" d="M78 798.5q0 235.5 33.5 397.5t104.5 255t166 132t228 39q150 0 246 -27.5t154.5 -94t82 -165t25.5 -250.5l-362 -45q-2 158 -36 210.5t-120 52.5q-84 0 -117.5 -123t-33.5 -381t33.5 -381t117.5 -123q86 0 120 52t36 210l362 -45q-2 -152 -25.5 -250t-82 -164.5 t-154.5 -94.5t-246 -28q-133 0 -228 39t-166 132.5t-104.5 255t-33.5 397z" />
<glyph unicode="D" horiz-adv-x="1239" d="M106 0v1597h469q223 0 348.5 -72.5t182.5 -244.5t57 -481.5t-57 -481.5t-182 -244.5t-349 -72.5h-469zM475 328h103q51 0 86.5 10t59.5 39t37 60.5t20 93t9.5 118t2.5 150.5t-2.5 150.5t-9.5 117.5t-20 93t-37 60.5t-59.5 39t-86.5 10.5h-103v-942z" />
<glyph unicode="E" horiz-adv-x="1024" d="M106 0v1597h832v-327h-465v-291h377v-326h-377v-325h488v-328h-855z" />
<glyph unicode="F" horiz-adv-x="976" d="M106 0v1597h820v-327h-453v-291h383v-326h-383v-653h-367z" />
<glyph unicode="G" horiz-adv-x="1239" d="M78 799q0 446 118.5 634.5t434.5 188.5q156 0 254 -28.5t153.5 -98.5t77 -164t23.5 -246l-363 -45q-2 154 -36.5 208.5t-118.5 54.5q-102 0 -137 -115t-35 -389v-21q0 -106 1 -154.5t6 -118t16 -97t32.5 -60.5t54.5 -43t80 -10q80 0 145 33v284h-159v299h512v-796 q-102 -74 -217 -107t-291 -33q-319 0 -435 186.5t-116 637.5z" />
<glyph unicode="H" horiz-adv-x="1196" d="M106 0v1597h367v-618h250v618h367v-1597h-367v653h-250v-653h-367z" />
<glyph unicode="I" horiz-adv-x="602" d="M117 0v1597h368v-1597h-368z" />
<glyph unicode="J" horiz-adv-x="1011" d="M4 428l354 43q0 -94 21.5 -136t75.5 -42q51 0 70.5 33.5t19.5 115.5v1155h366v-1153q0 -256 -113.5 -362.5t-351.5 -106.5q-258 0 -350 108.5t-92 344.5z" />
<glyph unicode="K" horiz-adv-x="1198" d="M106 0v1597h367l-8 -665l248 665h442l-344 -692l369 -905h-449l-172 586l-94 -178l8 -408h-367z" />
<glyph unicode="L" horiz-adv-x="921" d="M106 0v1597h367v-1269h404v-328h-771z" />
<glyph unicode="M" horiz-adv-x="1531" d="M106 0v1597h510l150 -888l147 888h512v-1597h-362l16 813l-168 -813h-290l-168 813l16 -813h-363z" />
<glyph unicode="N" horiz-adv-x="1234" d="M106 0v1597h398l155 -462l129 -390l-2 308v544h342v-1597h-397l-158 463l-127 389l3 -307l4 -545h-347z" />
<glyph unicode="O" horiz-adv-x="1204" d="M78 799q0 178 13 302t46 228.5t92.5 165.5t151.5 94t221 33q160 0 263.5 -47t160.5 -155.5t78.5 -253t21.5 -368t-21.5 -367.5t-78.5 -252.5t-160.5 -156t-263.5 -47.5q-129 0 -221 33t-151.5 94.5t-92.5 166t-46 228.5t-13 302zM449 799q0 -297 29.5 -400.5 t123.5 -103.5q92 0 123 104.5t31 399.5t-31 399.5t-123 104.5q-94 0 -123.5 -103.5t-29.5 -400.5z" />
<glyph unicode="P" horiz-adv-x="1126" d="M111 0v1597h503q100 0 178 -23.5t146 -80.5t104.5 -166.5t36.5 -267.5q0 -160 -35.5 -270.5t-101 -168t-142.5 -81t-177 -23.5h-144v-516h-368zM479 846h115q61 0 87 48t26 165q0 115 -26 163t-87 48h-115v-424z" />
<glyph unicode="Q" horiz-adv-x="1204" d="M78 799q0 178 13 302t46 228.5t92.5 165.5t151.5 94t221 33q160 0 263.5 -47t160.5 -155.5t78.5 -253t21.5 -367.5q0 -362 -66.5 -549t-244.5 -246l199 -125l-178 -321l-584 524q-98 90 -136 261t-38 456zM449 799q0 -297 29.5 -400.5t123.5 -103.5q92 0 123 104.5 t31 399.5t-31 399.5t-123 104.5q-94 0 -123.5 -103.5t-29.5 -400.5z" />
<glyph unicode="R" horiz-adv-x="1165" d="M106 0v1597h515q82 0 144 -9t126.5 -42t106.5 -87t69 -150.5t27 -229.5q0 -346 -187 -477l223 -602h-419l-152 557h-84v-557h-369zM475 887h94q76 0 114 35.5t38 156.5q0 117 -38 154t-114 37h-94v-383z" />
<glyph unicode="S" horiz-adv-x="1101" d="M43 498l352 45q4 -143 32 -195.5t118 -52.5q74 0 108.5 36t34.5 115q0 94 -51 135.5t-186 75.5q-86 23 -144.5 48.5t-120 78t-92.5 143.5t-31 220q0 252 115 367.5t387 115.5q121 0 206 -24.5t135 -65.5t78 -112.5t36 -144.5t10 -183l-354 -45q0 139 -22.5 193.5 t-100.5 54.5q-121 0 -121 -144q0 -106 40 -141t165 -60q104 -18 173 -45.5t126 -81t86 -140.5t31 -216q0 -276 -125 -392t-391 -116q-154 0 -250.5 30t-149.5 99.5t-72.5 162t-21.5 239.5z" />
<glyph unicode="T" horiz-adv-x="1001" d="M41 1270v327h920v-327h-277v-1270h-367v1270h-276z" />
<glyph unicode="U" horiz-adv-x="1155" d="M100 422v1175h369v-1157q0 -84 21.5 -115.5t87.5 -31.5q68 0 89 31.5t21 115.5v1157h367v-1175q0 -246 -99.5 -350.5t-378 -104.5t-378 104.5t-99.5 350.5z" />
<glyph unicode="V" horiz-adv-x="1081" d="M23 1597h372l146 -1280l145 1280h373l-242 -1609h-555z" />
<glyph unicode="W" horiz-adv-x="1617" d="M27 1597h366l74 -1126l135 1126h414l135 -1126l74 1126h366l-168 -1609h-481l-133 1108l-133 -1108h-481z" />
<glyph unicode="X" horiz-adv-x="1187" d="M25 0l245 817l-227 780h414l137 -563l137 563h414l-227 -780l245 -817h-430l-139 567l-139 -567h-430z" />
<glyph unicode="Y" horiz-adv-x="1099" d="M-8 1597h377l182 -702l180 702h377l-379 -1081l6 -516h-368l4 516z" />
<glyph unicode="Z" horiz-adv-x="1081" d="M55 0v264l477 895l66 113l-240 -2h-266v327h918v-264l-475 -895l-68 -112l242 2h303v-328h-957z" />
<glyph unicode="[" horiz-adv-x="671" d="M131 -266v1966h481v-328h-114v-1311h114v-327h-481z" />
<glyph unicode="\" horiz-adv-x="872" d="M18 1782h367l469 -1966h-367z" />
<glyph unicode="]" horiz-adv-x="671" d="M59 61h115v1311h-115v328h482v-1966h-482v327z" />
<glyph unicode="^" horiz-adv-x="1236" d="M37 819l420 811h323l420 -811h-385l-137 291l-57 127l-62 -127l-137 -291h-385z" />
<glyph unicode="_" horiz-adv-x="753" d="M66 -154h622v-256h-622v256z" />
<glyph unicode="`" horiz-adv-x="1269" d="M336 1638h401l90 -426h-366z" />
<glyph unicode="a" horiz-adv-x="1021" d="M43 317q0 170 95 247t329 112l102 16v70q0 41 -13 60.5t-50 19.5q-35 0 -52.5 -29t-17.5 -100l-362 43q0 182 89 268t349 86q246 0 331 -79t85 -298v-422l8 -311h-324l-12 94q-53 -66 -114.5 -92.5t-163.5 -26.5q-145 0 -212 85t-67 257zM397 352q0 -90 74 -90 q57 0 98 49v166l-75 -14q-97 -17 -97 -111z" />
<glyph unicode="b" horiz-adv-x="1089" d="M86 0l8 311v1327h359v-620q76 92 225 92q362 0 362 -567.5t-362 -567.5q-164 0 -256 119l-12 -94h-324zM453 362q55 -72 120 -71q59 0 81 51t22 200.5t-21.5 201t-81.5 51.5q-66 0 -120 -72v-361z" />
<glyph unicode="c" horiz-adv-x="974" d="M49 542.5q0 313.5 102.5 440.5t354.5 127q131 0 217 -27.5t130 -87t59.5 -130t15.5 -179.5l-342 -43q0 156 -80 156q-59 0 -82 -51.5t-23 -205t22.5 -204.5t82.5 -51q80 0 80 155l342 -43q0 -109 -15.5 -179t-59.5 -129.5t-130 -87.5t-217 -28q-252 0 -354.5 127 t-102.5 440.5z" />
<glyph unicode="d" horiz-adv-x="1089" d="M49 542.5q0 567.5 365 567.5q90 0 139 -23.5t86 -68.5v620h356v-1327l9 -311h-324l-12 94q-88 -119 -254 -119q-365 0 -365 567.5zM414 542.5q0 -149.5 22.5 -200.5t81.5 -51q66 0 121 71v361q-55 72 -121 72q-59 0 -81.5 -51.5t-22.5 -201z" />
<glyph unicode="e" horiz-adv-x="1011" d="M49 543q0 295 101.5 431t359.5 136t356.5 -137t98.5 -434v-101h-543q0 -96 16.5 -137t67.5 -41q82 0 82 98l362 -43q0 -66 -9 -111.5t-35.5 -91.5t-74 -74t-126 -45.5t-189.5 -17.5q-270 0 -368.5 134.5t-98.5 433.5zM422 649h162q0 98 -16.5 137t-61.5 39 q-47 0 -65.5 -40t-18.5 -136z" />
<glyph unicode="f" horiz-adv-x="749" d="M37 788v297h123v228q0 170 98 260t289 90q123 0 198 -27l-16 -293q-49 16 -104 17q-57 0 -83 -22.5t-26 -75.5v-177h186v-297h-186v-788h-356v788h-123z" />
<glyph unicode="g" horiz-adv-x="1099" d="M59 571.5q0 538.5 363 538.5q94 0 152.5 -29.5t103.5 -89.5l12 94h324l-8 -311v-803q0 -219 -117 -312t-344 -93q-260 0 -361.5 80t-101.5 278l350 45q-4 -119 103 -119q59 0 85.5 34t26.5 114v127q-74 -92 -225 -92q-363 0 -363 538.5zM424 571q0 -131 22.5 -177 t79.5 -46q66 0 121 72v303q-55 72 -121 72q-57 0 -79.5 -46.5t-22.5 -177.5z" />
<glyph unicode="h" horiz-adv-x="1093" d="M92 0v1638h359v-620q106 92 280 92q150 0 214.5 -80t64.5 -246v-784h-357v707q0 88 -73 88q-76 0 -129 -72v-723h-359z" />
<glyph unicode="i" horiz-adv-x="544" d="M88 1235v362h367v-362h-367zM94 0v1085h357v-1085h-357z" />
<glyph unicode="j" horiz-adv-x="544" d="M-117 -416l17 295q43 -16 106 -16q88 0 88 88v1134h357v-1177q0 -350 -369 -350q-119 -1 -199 26zM88 1235v362h367v-362h-367z" />
<glyph unicode="k" d="M92 0v1638h357l-11 -903l162 350h420l-281 -411l310 -674h-416l-121 360l-74 -104l11 -256h-357z" />
<glyph unicode="l" horiz-adv-x="552" d="M98 0v1638h357v-1638h-357z" />
<glyph unicode="m" horiz-adv-x="1572" d="M86 1085h324l12 -98q117 123 301 123q168 0 215 -115q115 115 303 115q248 0 248 -291v-819h-356v737q0 57 -58 58q-61 0 -104 -54v-741h-357v737q0 57 -59 58q-61 0 -102 -54v-741h-359v774z" />
<glyph unicode="n" horiz-adv-x="1093" d="M86 1085h322l12 -94q68 63 137.5 91t173.5 28q150 0 214.5 -80t64.5 -246v-784h-357v707q0 88 -73 88q-76 0 -129 -72v-723h-359v774z" />
<glyph unicode="o" horiz-adv-x="1019" d="M49 543q0 322 105.5 444.5t355.5 122.5t355.5 -123t105.5 -444q0 -324 -105.5 -446t-355.5 -122t-355.5 122t-105.5 446zM403 542.5q0 -155.5 25 -204.5t82 -49t81.5 49t24.5 204.5t-24.5 205t-81.5 49.5t-82 -49.5t-25 -205z" />
<glyph unicode="p" horiz-adv-x="1089" d="M86 1085h324l12 -94q92 119 256 119q362 0 362 -567.5t-362 -567.5q-150 0 -225 93v-478h-359v1184zM453 362q55 -72 120 -71q59 0 81 51t22 200.5t-21.5 201t-81.5 51.5q-66 0 -120 -72v-361z" />
<glyph unicode="q" horiz-adv-x="1089" d="M49 542.5q0 567.5 363 567.5q168 0 256 -119l12 94h324l-9 -311v-1184h-356v478q-37 -45 -86 -69t-141 -24q-363 0 -363 567.5zM414 542.5q0 -149.5 21.5 -200.5t80.5 -51q68 0 123 71v361q-55 72 -123 72q-59 0 -80.5 -51.5t-21.5 -201z" />
<glyph unicode="r" horiz-adv-x="751" d="M86 1085h322l14 -106q74 131 203 131q57 0 92 -25l-19 -331q-23 8 -71 8q-102 0 -176 -62v-700h-359v774z" />
<glyph unicode="s" horiz-adv-x="1003" d="M49 324l352 43q0 -61 20.5 -90t72.5 -29q88 0 88 94q0 43 -26 59.5t-85 20.5q-117 10 -184.5 26.5t-124 51.5t-80 97t-23.5 161q0 352 439 352q178 0 269 -35t123 -102.5t32 -196.5l-353 -45q0 106 -63 107q-57 0 -57 -84q0 -76 96 -82q111 -8 176 -21.5t124.5 -47.5 t84 -95.5t24.5 -157.5q0 -375 -469 -375q-190 0 -284.5 37t-123 106t-28.5 206z" />
<glyph unicode="t" horiz-adv-x="790" d="M33 788v297h127v287h356v-287h217v-297h-217v-419q0 -90 88 -90q53 0 107 16l16 -293q-80 -27 -201 -27q-367 0 -366 351v462h-127z" />
<glyph unicode="u" horiz-adv-x="1093" d="M84 301v784h356v-706q0 -88 72 -88q74 0 131 71v723h356v-774l9 -311h-322l-12 94q-68 -63 -137.5 -91t-174.5 -28q-150 0 -214 80t-64 246z" />
<glyph unicode="v" horiz-adv-x="976" d="M12 1085h377l98 -778l101 778h377l-217 -1085h-519z" />
<glyph unicode="w" horiz-adv-x="1384" d="M43 1085h342l43 -602l100 602h328l100 -602l43 602h342l-145 -1085h-408l-96 623l-96 -623h-408z" />
<glyph unicode="x" horiz-adv-x="1056" d="M33 0l188 553l-166 532h396l77 -383l78 383h395l-165 -532l188 -553h-418l-78 377l-77 -377h-418z" />
<glyph unicode="y" horiz-adv-x="1048" d="M14 1085h379l131 -698l131 698h379l-323 -1077l-148 -418h-403l168 396z" />
<glyph unicode="z" horiz-adv-x="870" d="M29 0v240l360 536l-330 -6v315h752v-239l-362 -537l391 6v-315h-811z" />
<glyph unicode="{" horiz-adv-x="731" d="M18 557v322h50q115 0 114 102v307q0 412 441 412h84v-328h-50q-117 0 -116 -102v-324q0 -172 -144 -229q143 -57 144 -228v-325q0 -102 116 -103h50v-327h-84q-440 0 -441 411v310q0 102 -114 102h-50z" />
<glyph unicode="|" horiz-adv-x="673" d="M154 -266v1966h366v-1966h-366z" />
<glyph unicode="}" horiz-adv-x="731" d="M23 61h51q115 0 114 103v323q0 170 146 230q-145 59 -146 227v326q0 102 -114 102h-51v328h86q440 0 440 -412v-309q0 -102 113 -102h49v-322h-49q-113 0 -113 -102v-308q0 -412 -440 -411h-86v327z" />
<glyph unicode="~" d="M49 717q16 47 99 111.5t200 64.5q100 0 212 -54.5t167 -54.5q51 0 90 23.5t51 40.5l148 -191q-16 -47 -99 -111.5t-200 -64.5q-100 0 -212 54.5t-167 54.5q-51 0 -90 -23.5t-51 -40.5z" />
<glyph unicode="&#xa1;" horiz-adv-x="542" d="M76 -410l53 988h285l53 -988h-391zM88 723v362h367v-362h-367z" />
<glyph unicode="&#xa2;" horiz-adv-x="974" d="M49 782q0 297 90 428t310 146l61 209h311l-73 -242q102 -41 141 -125t39 -219l-342 -45q0 59 -16.5 86t-63.5 27q-59 0 -82 -55.5t-23 -209t22.5 -209t82.5 -55.5q47 0 63.5 26.5t16.5 86.5l342 -45q0 -182 -75 -274.5t-288 -104.5l-61 -207h-314l74 248 q-115 53 -165 181t-50 353z" />
<glyph unicode="&#xa3;" horiz-adv-x="1167" d="M78 0v326h147v340h-147v297h147v194q0 117 16.5 189.5t62.5 132t135 85t228.5 25.5t227.5 -25.5t134 -84t63.5 -132t17.5 -190.5l-356 -45q0 96 -16.5 136t-70 40t-69.5 -40t-16 -136v-149h344v-297h-344v-340h526v-326h-1030z" />
<glyph unicode="&#xa4;" horiz-adv-x="1679" d="M59 256l213 213q-70 135 -69.5 313.5t69.5 313.5l-213 213l238 237l219 -219q141 66 323.5 66t323.5 -66l219 219l238 -237l-213 -213q70 -133 70 -313.5t-70 -313.5l213 -213l-238 -238l-219 220q-141 -66 -323.5 -66t-323.5 66l-219 -220zM580 782.5 q0 -145.5 65.5 -211t194.5 -65.5t194.5 65.5t65.5 211t-65.5 211t-194.5 65.5t-194.5 -65.5t-65.5 -211z" />
<glyph unicode="&#xa5;" horiz-adv-x="1187" d="M35 1565h377l182 -703l182 703h377l-272 -772h206v-228h-286l-29 -82h315v-227h-313l4 -256h-368l2 256h-312v227h316l-29 82h-287v228h207z" />
<glyph unicode="&#xa6;" horiz-adv-x="718" d="M170 -266v870h379v-870h-379zM170 829v871h379v-871h-379z" />
<glyph unicode="&#xa7;" horiz-adv-x="1126" d="M61 532q0 143 41 228.5t144 126.5q-123 53 -123 297q0 438 471 438q141 0 230 -25.5t135.5 -85t62.5 -132t16 -189.5l-354 -45q0 94 -19.5 135t-72.5 41q-45 0 -67.5 -37t-22.5 -96q0 -76 34.5 -112t116.5 -50q209 -29 310.5 -108.5t101.5 -262.5q0 -143 -41 -228 t-143 -126q123 -53 123 -297q0 -438 -472 -438q-141 0 -230 25.5t-135 85t-62.5 132t-16.5 189.5l354 45q0 -94 19.5 -135t73.5 -41q45 0 67.5 37t22.5 96q0 76 -35 111.5t-117 50.5q-209 29 -310.5 108.5t-101.5 261.5zM430 584q0 -123 133 -123q76 0 104.5 33.5 t28.5 109.5q0 123 -133 123q-76 0 -104.5 -33.5t-28.5 -109.5z" />
<glyph unicode="&#xa8;" horiz-adv-x="1269" d="M207 1235v362h366v-362h-366zM696 1235v362h367v-362h-367z" />
<glyph unicode="&#xa9;" horiz-adv-x="1884" d="M111 799q0 344 243.5 587.5t587.5 243.5t588 -243.5t244 -587.5t-244 -588t-588 -244t-587.5 244t-243.5 588zM389 798.5q0 -270.5 153.5 -423t399.5 -152.5q272 0 398 107.5t130 283.5l-372 45q-4 -57 -33 -81.5t-123 -24.5t-137 57.5t-43 188.5t43 188t137 57 t123 -24.5t33 -81.5l372 45q-4 176 -130 283.5t-398 107.5q-246 0 -399.5 -152.5t-153.5 -423z" />
<glyph unicode="&#xaa;" horiz-adv-x="847" d="M45 1030q0 123 82 182.5t252 87.5l110 19v20q0 66 -59 66q-70 0 -65 -82l-287 37q0 68 11 112t45 82.5t105.5 57t182.5 18.5q199 0 278.5 -73.5t79.5 -247.5v-275l6 -235h-260l-10 69q-88 -102 -231 -102q-240 0 -240 264zM354 1067q0 -63 58 -63q49 0 77 45v110l-71 -18 q-64 -17 -64 -74z" />
<glyph unicode="&#xab;" horiz-adv-x="1105" d="M106 537v217l426 293v-289l-120 -113l120 -110v-291zM557 537v217l426 293v-289l-121 -113l121 -110v-291z" />
<glyph unicode="&#xac;" horiz-adv-x="1474" d="M184 836v335h1106v-745h-336v410h-770z" />
<glyph unicode="&#xad;" horiz-adv-x="843" d="M111 518v336h622v-336h-622z" />
<glyph unicode="&#xae;" horiz-adv-x="1884" d="M111 799q0 344 243.5 587.5t587.5 243.5t588 -243.5t244 -587.5t-244 -588t-588 -244t-587.5 244t-243.5 588zM512 256h295v387h102l181 -387h354l-221 430q164 80 163 307q0 348 -376 348h-498v-1085zM807 934v119h207q72 0 71.5 -59.5t-71.5 -59.5h-207z" />
<glyph unicode="&#xaf;" horiz-adv-x="1269" d="M377 1262v335h516v-335h-516z" />
<glyph unicode="&#xb0;" horiz-adv-x="1007" d="M102 1216.5q0 186.5 111 283.5t291 97t290.5 -97t110.5 -283.5t-110.5 -283.5t-290.5 -97t-291 97t-111 283.5zM379 1217q0 -119 125 -119t125 119q0 121 -125 121t-125 -121z" />
<glyph unicode="&#xb1;" horiz-adv-x="1474" d="M184 143v336h1106v-336h-1106zM184 866v336h385v252h336v-252h385v-336h-385v-252h-336v252h-385z" />
<glyph unicode="&#xb2;" horiz-adv-x="741" d="M70 725q0 106 3 152.5t12 100.5t35.5 84t66.5 61.5t114 72.5q63 37 87 64.5t24 72.5q0 39 -7.5 54.5t-27.5 15.5q-37 0 -37 -129l-256 24q0 82 8 129.5t38 87t90.5 55t160.5 15.5q164 0 225.5 -51t61.5 -184q0 -113 -39 -160t-187 -135q-68 -43 -85 -71t-17 -73h332v-186 h-602z" />
<glyph unicode="&#xb3;" horiz-adv-x="741" d="M61 999l250 27q0 -80 12.5 -105.5t49.5 -25.5q31 0 41 21.5t10 70.5q0 47 -13.5 63.5t-56.5 16.5h-65v184h65q27 0 31 12.5t4 59.5q0 53 -5 66.5t-29.5 13.5t-31 -21.5t-6.5 -97.5l-245 25q2 154 61.5 215t226.5 61q150 0 217.5 -53t67.5 -186q0 -82 -19.5 -121 t-64.5 -60q61 -14 90 -59t29 -141q0 -123 -69.5 -187.5t-248.5 -64.5q-186 0 -243.5 66t-57.5 220z" />
<glyph unicode="&#xb4;" horiz-adv-x="1269" d="M442 1212l90 426h402l-125 -426h-367z" />
<glyph unicode="&#xb5;" horiz-adv-x="1093" d="M84 -410v1495h356v-706q0 -88 72 -88q74 0 131 71v723h356v-774l9 -311h-322l-12 94q-76 -119 -234 -119v-385h-356z" />
<glyph unicode="&#xb6;" horiz-adv-x="1159" d="M47 1059q0 158 37 267.5t104.5 166.5t145.5 80.5t178 23.5h537v-1597h-369v1270h-74v-1270h-74v516h-28q-100 0 -177 23.5t-142.5 81t-101.5 168t-36 270.5zM420 1059q0 -117 25.5 -165t86.5 -48v424q-61 0 -86.5 -48t-25.5 -163z" />
<glyph unicode="&#xb7;" horiz-adv-x="655" d="M139 502v372h377v-372h-377z" />
<glyph unicode="&#xb8;" horiz-adv-x="1269" d="M350 -395l51 155q49 -27 103 -34q20 -3 35 -3q63 0 63 46q0 29 -43 49t-117 28l62 179h192l-24 -93q111 -23 168 -71q49 -42 48 -107q0 -12 -1 -24q-10 -86 -86 -129t-187 -43q-155 0 -264 47z" />
<glyph unicode="&#xb9;" horiz-adv-x="741" d="M82 1221v213q72 14 137.5 59t91.5 92h199v-674h164v-186h-580v186h164v377q-61 -49 -176 -67z" />
<glyph unicode="&#xba;" horiz-adv-x="901" d="M57 1198.5q0 237.5 90.5 334.5t303.5 97t303 -97t90 -334.5t-90 -335t-303 -97.5t-303.5 97.5t-90.5 335zM348 1198q0 -115 23.5 -152.5t79 -37.5t79 37.5t23.5 152.5t-23.5 153t-79 38t-79 -38t-23.5 -153z" />
<glyph unicode="&#xbb;" horiz-adv-x="1105" d="M123 244v291l121 110l-121 113v289l426 -293v-217zM573 244v291l121 110l-121 113v289l426 -293v-217z" />
<glyph unicode="&#xbc;" horiz-adv-x="1912" d="M82 1221v213q72 14 137.5 59t91.5 92h199v-674h164v-186h-580v186h164v377q-61 -49 -176 -67zM422 0l801 1565h268l-801 -1565h-268zM1229 176v156l270 528h287v-498h72v-186h-72v-176h-246v176h-311zM1452 358l88 4l14 248z" />
<glyph unicode="&#xbd;" horiz-adv-x="1912" d="M82 1221v213q72 14 137.5 59t91.5 92h199v-674h164v-186h-580v186h164v377q-61 -49 -176 -67zM422 0l801 1565h268l-801 -1565h-268zM1241 0q0 106 3 152.5t12.5 100.5t36 84t66.5 61.5t114 72.5q63 37 86.5 64.5t23.5 72.5q0 39 -7 54.5t-28 15.5q-37 0 -37 -129 l-256 24q0 82 8.5 129.5t38 87t90 55t160.5 15.5q164 0 225.5 -51t61.5 -184q0 -113 -39 -160t-186 -135q-68 -43 -85.5 -71t-17.5 -73h332v-186h-602z" />
<glyph unicode="&#xbe;" horiz-adv-x="1912" d="M61 999l250 27q0 -80 12.5 -105.5t49.5 -25.5q31 0 41 21.5t10 70.5q0 47 -13.5 63.5t-56.5 16.5h-65v184h65q27 0 31 12.5t4 59.5q0 53 -5 66.5t-29.5 13.5t-31 -21.5t-6.5 -97.5l-245 25q2 154 61.5 215t226.5 61q150 0 217.5 -53t67.5 -186q0 -82 -19.5 -121 t-64.5 -60q61 -14 90 -59t29 -141q0 -123 -69.5 -187.5t-248.5 -64.5q-186 0 -243.5 66t-57.5 220zM422 0l801 1565h268l-801 -1565h-268zM1229 176v156l270 528h287v-497h72v-187h-72v-176h-246v176h-311zM1452 358l88 5l14 247z" />
<glyph unicode="&#xbf;" d="M53 -45q0 90 20.5 153.5t68.5 108.5t87 68.5t119 62.5q61 31 85 60.5t24 72.5t-15 97h256q53 -96 54 -193q0 -90 -47.5 -149.5t-180.5 -126.5q-96 -51 -96 -132q0 -86 100 -86q70 0 98.5 46.5t28.5 166.5l351 -43q0 -258 -102.5 -376.5t-373.5 -118.5q-252 0 -364.5 91 t-112.5 298zM377 723v362h366v-362h-366z" />
<glyph unicode="&#xc0;" horiz-adv-x="1081" d="M23 0l239 1610h555l242 -1610h-373l-31 256h-231l-29 -256h-372zM231 2109h402l90 -426h-367zM457 555h166l-82 725z" />
<glyph unicode="&#xc1;" horiz-adv-x="1081" d="M23 0l239 1610h555l242 -1610h-373l-31 256h-231l-29 -256h-372zM358 1683l91 426h401l-125 -426h-367zM457 555h166l-82 725z" />
<glyph unicode="&#xc2;" horiz-adv-x="1081" d="M23 0l239 1610h555l242 -1610h-373l-31 256h-231l-29 -256h-372zM160 1683l180 426h401l181 -426h-293l-88 172l-88 -172h-293zM457 555h166l-82 725z" />
<glyph unicode="&#xc3;" horiz-adv-x="1081" d="M23 0l239 1610h555l242 -1610h-373l-31 256h-231l-29 -256h-372zM98 1741q25 401 269 401q59 0 110 -23.5t80 -53t60.5 -53t56.5 -23.5q56 4 55 83v11l254 -31q-25 -401 -268 -401q-76 0 -136.5 39t-101.5 76.5t-69 37.5q-56 -4 -56 -83v-11zM457 555h166l-82 725z" />
<glyph unicode="&#xc4;" horiz-adv-x="1081" d="M23 0l239 1610h555l242 -1610h-373l-31 256h-231l-29 -256h-372zM113 1706v362h366v-362h-366zM457 555h166l-82 725zM602 1706v362h367v-362h-367z" />
<glyph unicode="&#xc5;" horiz-adv-x="1081" d="M23 0l239 1610h555l242 -1610h-373l-31 256h-231l-29 -256h-372zM295 1896.5q0 110.5 65.5 178t180 67.5t180 -67.5t65.5 -178t-65.5 -178t-180 -67.5t-180 67.5t-65.5 178zM457 555h166l-82 725zM483 1896.5q0 -57.5 57.5 -57.5t57.5 57.5t-57.5 57.5t-57.5 -57.5z" />
<glyph unicode="&#xc6;" horiz-adv-x="1515" d="M12 0l391 1597h1029v-327h-476l23 -291h364v-326h-337l26 -325h422v-328h-758l-14 256h-248l-49 -256h-373zM492 555h174l-37 705z" />
<glyph unicode="&#xc7;" horiz-adv-x="1179" d="M78 799q0 236 33.5 397.5t104.5 254.5t166 132t228 39q150 0 246 -27.5t154.5 -94t82 -165t25.5 -250.5l-362 -45q-2 158 -36 210.5t-120 52.5q-84 0 -117.5 -123t-33.5 -381t33.5 -381t117.5 -123q86 0 120 52t36 210l362 -45q-4 -279 -94 -399.5t-330 -135.5l-12 -45 q111 -23 168 -71q49 -42 49 -107q0 -12 -2 -24q-10 -86 -86 -129t-186 -43q-156 0 -265 47l52 155q49 -27 102 -34q20 -3 35 -3q63 0 63 46q0 29 -43 49t-116 28l47 138q-213 31 -317.5 217t-104.5 598z" />
<glyph unicode="&#xc8;" horiz-adv-x="1021" d="M106 0v1597h832v-327h-465v-291h377v-326h-377v-325h488v-328h-855zM233 2109h402l90 -426h-367z" />
<glyph unicode="&#xc9;" horiz-adv-x="1021" d="M106 0v1597h832v-327h-465v-291h377v-326h-377v-325h488v-328h-855zM340 1683l90 426h401l-124 -426h-367z" />
<glyph unicode="&#xca;" horiz-adv-x="1021" d="M106 0v1597h832v-327h-465v-291h377v-326h-377v-325h488v-328h-855zM152 1683l180 426h401l180 -426h-292l-89 172l-88 -172h-292z" />
<glyph unicode="&#xcb;" horiz-adv-x="1024" d="M104 1706v362h367v-362h-367zM106 0v1597h832v-327h-465v-291h377v-326h-377v-325h488v-328h-855zM594 1706v362h367v-362h-367z" />
<glyph unicode="&#xcc;" horiz-adv-x="602" d="M-8 2109h401l90 -426h-366zM117 0v1597h368v-1597h-368z" />
<glyph unicode="&#xcd;" horiz-adv-x="602" d="M117 0v1597h368v-1597h-368zM119 1683l90 426h401l-125 -426h-366z" />
<glyph unicode="&#xce;" horiz-adv-x="602" d="M-80 1683l180 426h402l180 -426h-293l-88 172l-88 -172h-293zM117 0v1597h368v-1597h-368z" />
<glyph unicode="&#xcf;" horiz-adv-x="602" d="M-127 1706v362h367v-362h-367zM117 0v1597h368v-1597h-368zM362 1706v362h367v-362h-367z" />
<glyph unicode="&#xd0;" horiz-adv-x="1320" d="M63 653v326h125v618h469q223 0 348 -72.5t182.5 -244.5t57.5 -481.5t-57.5 -481.5t-182 -244.5t-348.5 -72.5h-469v653h-125zM557 328h102q51 0 87 10t59.5 39t37 60.5t20.5 93t9 118t2 150.5t-2 150.5t-9 117.5t-20.5 93t-37 60.5t-59 39t-87.5 10.5h-102v-291h191v-326 h-191v-325z" />
<glyph unicode="&#xd1;" horiz-adv-x="1234" d="M106 0v1597h398l155 -462l129 -390l-2 308v544h342v-1597h-397l-158 463l-127 389l3 -307l4 -545h-347zM174 1741q25 401 268 401q59 0 110.5 -23.5t80.5 -53t60.5 -53t56.5 -23.5q56 4 55 83v11l254 -31q-25 -401 -268 -401q-76 0 -136.5 39t-101.5 76.5t-70 37.5 q-56 -4 -55 -83v-11z" />
<glyph unicode="&#xd2;" horiz-adv-x="1204" d="M78 799q0 178 13 302t46 228.5t92.5 165.5t151.5 94t221 33q160 0 263.5 -47t160.5 -155.5t78.5 -253t21.5 -368t-21.5 -367.5t-78.5 -252.5t-160.5 -156t-263.5 -47.5q-129 0 -221 33t-151.5 94.5t-92.5 166t-46 228.5t-13 302zM303 2109h402l90 -426h-367zM449 799 q0 -297 29.5 -400.5t123.5 -103.5q92 0 123 104.5t31 399.5t-31 399.5t-123 104.5q-94 0 -123.5 -103.5t-29.5 -400.5z" />
<glyph unicode="&#xd3;" horiz-adv-x="1204" d="M78 799q0 178 13 302t46 228.5t92.5 165.5t151.5 94t221 33q160 0 263.5 -47t160.5 -155.5t78.5 -253t21.5 -368t-21.5 -367.5t-78.5 -252.5t-160.5 -156t-263.5 -47.5q-129 0 -221 33t-151.5 94.5t-92.5 166t-46 228.5t-13 302zM410 1683l90 426h401l-125 -426h-366z M449 799q0 -297 29.5 -400.5t123.5 -103.5q92 0 123 104.5t31 399.5t-31 399.5t-123 104.5q-94 0 -123.5 -103.5t-29.5 -400.5z" />
<glyph unicode="&#xd4;" horiz-adv-x="1204" d="M78 799q0 178 13 302t46 228.5t92.5 165.5t151.5 94t221 33q160 0 263.5 -47t160.5 -155.5t78.5 -253t21.5 -368t-21.5 -367.5t-78.5 -252.5t-160.5 -156t-263.5 -47.5q-129 0 -221 33t-151.5 94.5t-92.5 166t-46 228.5t-13 302zM221 1683l180 426h402l180 -426h-293 l-88 172l-88 -172h-293zM449 799q0 -297 29.5 -400.5t123.5 -103.5q92 0 123 104.5t31 399.5t-31 399.5t-123 104.5q-94 0 -123.5 -103.5t-29.5 -400.5z" />
<glyph unicode="&#xd5;" horiz-adv-x="1204" d="M78 799q0 178 13 302t46 228.5t92.5 165.5t151.5 94t221 33q160 0 263.5 -47t160.5 -155.5t78.5 -253t21.5 -368t-21.5 -367.5t-78.5 -252.5t-160.5 -156t-263.5 -47.5q-129 0 -221 33t-151.5 94.5t-92.5 166t-46 228.5t-13 302zM160 1741q25 401 268 401 q59 0 110.5 -23.5t80 -53t60.5 -53t56 -23.5q56 4 56 83v11l253 -31q-25 -401 -268 -401q-76 0 -136 39t-101 76.5t-70 37.5q-56 -4 -56 -83q0 -5 1 -11zM449 799q0 -297 29.5 -400.5t123.5 -103.5q92 0 123 104.5t31 399.5t-31 399.5t-123 104.5q-94 0 -123.5 -103.5 t-29.5 -400.5z" />
<glyph unicode="&#xd6;" horiz-adv-x="1204" d="M78 799q0 178 13 302t46 228.5t92.5 165.5t151.5 94t221 33q160 0 263.5 -47t160.5 -155.5t78.5 -253t21.5 -368t-21.5 -367.5t-78.5 -252.5t-160.5 -156t-263.5 -47.5q-129 0 -221 33t-151.5 94.5t-92.5 166t-46 228.5t-13 302zM174 1706v362h367v-362h-367zM449 799 q0 -297 29.5 -400.5t123.5 -103.5q92 0 123 104.5t31 399.5t-31 399.5t-123 104.5q-94 0 -123.5 -103.5t-29.5 -400.5zM664 1706v362h366v-362h-366z" />
<glyph unicode="&#xd7;" horiz-adv-x="1474" d="M195 494l305 305l-305 305l237 237l305 -305l305 305l238 -237l-305 -305l305 -305l-238 -238l-305 305l-305 -305z" />
<glyph unicode="&#xd8;" horiz-adv-x="1204" d="M78 799q0 178 13 302t46 228.5t92.5 165.5t151.5 94t221 33q207 0 320 -82l30 57h133l-77 -147q119 -174 118 -651q0 -223 -21.5 -367.5t-78.5 -253t-160.5 -156t-263.5 -47.5q-207 0 -321 82l-29 -57h-133l76 147q-117 173 -117 652zM449 799q0 -115 2 -162l280 537 q-16 70 -47 99.5t-82 29.5q-94 0 -123.5 -103.5t-29.5 -400.5zM471 422q16 -70 47 -98.5t84 -28.5q92 0 123 104.5t31 399.5q0 115 -2 162z" />
<glyph unicode="&#xd9;" horiz-adv-x="1148" d="M96 422v1175h369v-1157q0 -84 21.5 -115.5t86.5 -31.5q68 0 89.5 31.5t21.5 115.5v1157h367v-1175q0 -246 -99.5 -350.5t-378 -104.5t-378 104.5t-99.5 350.5zM264 2109h402l90 -426h-367z" />
<glyph unicode="&#xda;" horiz-adv-x="1148" d="M96 422v1175h369v-1157q0 -84 21.5 -115.5t86.5 -31.5q68 0 89.5 31.5t21.5 115.5v1157h367v-1175q0 -246 -99.5 -350.5t-378 -104.5t-378 104.5t-99.5 350.5zM391 1683l90 426h402l-125 -426h-367z" />
<glyph unicode="&#xdb;" horiz-adv-x="1148" d="M96 422v1175h369v-1157q0 -84 21.5 -115.5t86.5 -31.5q68 0 89.5 31.5t21.5 115.5v1157h367v-1175q0 -246 -99.5 -350.5t-378 -104.5t-378 104.5t-99.5 350.5zM193 1683l180 426h401l180 -426h-292l-89 172l-88 -172h-292z" />
<glyph unicode="&#xdc;" horiz-adv-x="1155" d="M100 422v1175h369v-1157q0 -84 21.5 -115.5t87.5 -31.5q68 0 89 31.5t21 115.5v1157h367v-1175q0 -246 -99.5 -350.5t-378 -104.5t-378 104.5t-99.5 350.5zM150 1706v362h366v-362h-366zM639 1706v362h367v-362h-367z" />
<glyph unicode="&#xdd;" horiz-adv-x="1099" d="M-8 1597h377l182 -702l180 702h377l-379 -1081l6 -516h-368l4 516zM356 1683l90 426h402l-125 -426h-367z" />
<glyph unicode="&#xde;" horiz-adv-x="1126" d="M111 0v1597h368v-260h135q100 0 178 -23.5t146 -80.5t104.5 -167t36.5 -267q0 -160 -35.5 -270.5t-101 -168t-142.5 -81t-177 -23.5h-144v-256h-368zM479 586h115q61 0 87 48t26 165q0 115 -26 163t-87 48h-115v-424z" />
<glyph unicode="&#xdf;" horiz-adv-x="1392" d="M92 0v1239q0 205 122 314.5t409 109.5q528 0 528 -401q0 -98 -36 -164t-111 -121q-63 -45 -88 -72.5t-25 -68.5q0 -45 29.5 -72t93.5 -43q195 -43 262 -125t67 -250q0 -371 -444 -371q-215 0 -304 76q-77 65 -77 223q0 25 2 54l309 39q-1 -14 0 -26q0 -45 12 -68 q15 -28 56 -27q63 0 64 86q0 88 -101 108q-172 37 -252 119t-80 232q0 119 42 182t141 117q43 23 63.5 37t37.5 38.5t17 55.5q0 139 -190 139t-190 -139v-1221h-357z" />
<glyph unicode="&#xe0;" horiz-adv-x="1021" d="M43 317q0 170 95 247t329 112l102 16v70q0 41 -13 60.5t-50 19.5q-35 0 -52.5 -29t-17.5 -100l-362 43q0 182 89 268t349 86q246 0 331 -79t85 -298v-422l8 -311h-324l-12 94q-53 -66 -114.5 -92.5t-163.5 -26.5q-145 0 -212 85t-67 257zM207 1638h401l90 -426h-366z M397 352q0 -90 74 -90q57 0 98 49v166l-75 -14q-97 -17 -97 -111z" />
<glyph unicode="&#xe1;" horiz-adv-x="1021" d="M43 317q0 170 95 247t329 112l102 16v70q0 41 -13 60.5t-50 19.5q-35 0 -52.5 -29t-17.5 -100l-362 43q0 182 89 268t349 86q246 0 331 -79t85 -298v-422l8 -311h-324l-12 94q-53 -66 -114.5 -92.5t-163.5 -26.5q-145 0 -212 85t-67 257zM313 1212l90 426h402l-125 -426 h-367zM397 352q0 -90 74 -90q57 0 98 49v166l-75 -14q-97 -17 -97 -111z" />
<glyph unicode="&#xe2;" horiz-adv-x="1021" d="M43 317q0 170 95 247t329 112l102 16v70q0 41 -13 60.5t-50 19.5q-35 0 -52.5 -29t-17.5 -100l-362 43q0 182 89 268t349 86q246 0 331 -79t85 -298v-422l8 -311h-324l-12 94q-53 -66 -114.5 -92.5t-163.5 -26.5q-145 0 -212 85t-67 257zM125 1212l180 426h402l180 -426 h-293l-88 172l-88 -172h-293zM397 352q0 -90 74 -90q57 0 98 49v166l-75 -14q-97 -17 -97 -111z" />
<glyph unicode="&#xe3;" horiz-adv-x="1021" d="M43 317q0 170 95 247t329 112l102 16v70q0 41 -13 60.5t-50 19.5q-35 0 -52.5 -29t-17.5 -100l-362 43q0 182 89 268t349 86q246 0 331 -79t85 -298v-422l8 -311h-324l-12 94q-53 -66 -114.5 -92.5t-163.5 -26.5q-145 0 -212 85t-67 257zM63 1270q25 401 269 401 q76 0 136 -39t101 -76.5t70 -37.5q56 4 56 83q0 5 -1 11l254 -31q-25 -401 -268 -401q-76 0 -136.5 38.5t-101.5 76.5t-69 38q-56 -4 -56 -83v-11zM397 352q0 -90 74 -90q57 0 98 49v166l-75 -14q-97 -17 -97 -111z" />
<glyph unicode="&#xe4;" horiz-adv-x="1021" d="M43 317q0 170 95 247t329 112l102 16v70q0 41 -13 60.5t-50 19.5q-35 0 -52.5 -29t-17.5 -100l-362 43q0 182 89 268t349 86q246 0 331 -79t85 -298v-422l8 -311h-324l-12 94q-53 -66 -114.5 -92.5t-163.5 -26.5q-145 0 -212 85t-67 257zM78 1235v362h366v-362h-366z M397 352q0 -90 74 -90q57 0 98 49v166l-75 -14q-97 -17 -97 -111zM567 1235v362h367v-362h-367z" />
<glyph unicode="&#xe5;" horiz-adv-x="1021" d="M43 317q0 170 95 247t329 112l102 16v70q0 41 -13 60.5t-50 19.5q-35 0 -52.5 -29t-17.5 -100l-362 43q0 182 89 268t349 86q246 0 331 -79t85 -298v-422l8 -311h-324l-12 94q-53 -66 -114.5 -92.5t-163.5 -26.5q-145 0 -212 85t-67 257zM260 1425.5q0 110.5 65.5 178 t180.5 67.5t180.5 -67.5t65.5 -178t-65.5 -178t-180.5 -67.5t-180.5 67.5t-65.5 178zM397 352q0 -90 74 -90q57 0 98 49v166l-75 -14q-97 -17 -97 -111zM449 1425.5q0 -57.5 57 -57.5t57 57.5t-57 57.5t-57 -57.5z" />
<glyph unicode="&#xe6;" horiz-adv-x="1525" d="M43 317q0 176 101.5 254t330.5 78h94v113q0 41 -13 60.5t-50 19.5q-35 0 -52.5 -29t-17.5 -100l-362 43q0 182 89 268t349 86q186 0 264 -78q94 78 248 78q258 0 356.5 -137t98.5 -434v-101h-543q0 -96 16.5 -137t67.5 -41q82 0 82 98l362 -43q0 -66 -9 -111.5 t-35.5 -91.5t-74 -74t-126 -45.5t-189.5 -17.5q-227 0 -336 99q-143 -98 -311 -99q-340 0 -340 342zM397 352q0 -90 74 -90q63 0 107 53q-8 55 -13 123h-67q-101 0 -101 -86zM936 649h162q0 98 -16.5 137t-61.5 39q-47 0 -65.5 -40t-18.5 -136z" />
<glyph unicode="&#xe7;" horiz-adv-x="974" d="M49 543q0 313 102.5 440t354.5 127q131 0 217 -27.5t130 -87t59.5 -130t15.5 -179.5l-342 -43q0 156 -80 156q-59 0 -82 -51.5t-23 -205t22.5 -204.5t82.5 -51q80 0 80 155l342 -43q0 -205 -73 -306t-284 -116l-12 -45q111 -23 168 -71q49 -42 49 -107q0 -12 -2 -24 q-10 -86 -86 -129t-186 -43q-156 0 -264 47l51 155q49 -27 102 -34q20 -3 36 -3q63 0 62 46q0 29 -43 49t-116 28l47 140q-178 27 -253 156t-75 401z" />
<glyph unicode="&#xe8;" horiz-adv-x="1011" d="M49 543q0 295 101.5 431t359.5 136t356.5 -137t98.5 -434v-101h-543q0 -96 16.5 -137t67.5 -41q82 0 82 98l362 -43q0 -66 -9 -111.5t-35.5 -91.5t-74 -74t-126 -45.5t-189.5 -17.5q-270 0 -368.5 134.5t-98.5 433.5zM211 1638h401l90 -426h-366zM422 649h162 q0 98 -16.5 137t-61.5 39q-47 0 -65.5 -40t-18.5 -136z" />
<glyph unicode="&#xe9;" horiz-adv-x="1011" d="M49 543q0 295 101.5 431t359.5 136t356.5 -137t98.5 -434v-101h-543q0 -96 16.5 -137t67.5 -41q82 0 82 98l362 -43q0 -66 -9 -111.5t-35.5 -91.5t-74 -74t-126 -45.5t-189.5 -17.5q-270 0 -368.5 134.5t-98.5 433.5zM317 1212l91 426h401l-125 -426h-367zM422 649h162 q0 98 -16.5 137t-61.5 39q-47 0 -65.5 -40t-18.5 -136z" />
<glyph unicode="&#xea;" horiz-adv-x="1011" d="M49 543q0 295 101.5 431t359.5 136t356.5 -137t98.5 -434v-101h-543q0 -96 16.5 -137t67.5 -41q82 0 82 98l362 -43q0 -66 -9 -111.5t-35.5 -91.5t-74 -74t-126 -45.5t-189.5 -17.5q-270 0 -368.5 134.5t-98.5 433.5zM129 1212l180 426h402l180 -426h-293l-88 172 l-88 -172h-293zM422 649h162q0 98 -16.5 137t-61.5 39q-47 0 -65.5 -40t-18.5 -136z" />
<glyph unicode="&#xeb;" horiz-adv-x="1011" d="M49 543q0 295 101.5 431t359.5 136t356.5 -137t98.5 -434v-101h-543q0 -96 16.5 -137t67.5 -41q82 0 82 98l362 -43q0 -66 -9 -111.5t-35.5 -91.5t-74 -74t-126 -45.5t-189.5 -17.5q-270 0 -368.5 134.5t-98.5 433.5zM82 1235v362h367v-362h-367zM422 649h162 q0 98 -16.5 137t-61.5 39q-47 0 -65.5 -40t-18.5 -136zM571 1235v362h367v-362h-367z" />
<glyph unicode="&#xec;" horiz-adv-x="544" d="M-37 1638h402l90 -426h-367zM94 0v1085h357v-1085h-357z" />
<glyph unicode="&#xed;" horiz-adv-x="544" d="M88 1212l90 426h402l-125 -426h-367zM94 0v1085h357v-1085h-357z" />
<glyph unicode="&#xee;" horiz-adv-x="544" d="M-111 1212l181 426h401l180 -426h-293l-88 172l-88 -172h-293zM94 0v1085h357v-1085h-357z" />
<glyph unicode="&#xef;" horiz-adv-x="544" d="M-156 1235v362h367v-362h-367zM94 0v1085h357v-1085h-357zM332 1235v362h366v-362h-366z" />
<glyph unicode="&#xf0;" horiz-adv-x="1019" d="M49 543q0 309 103.5 438t293.5 129q92 0 150 -37q-37 98 -90 187l-354 -125v229l210 74q-111 111 -266 200h432q51 -37 119 -100l273 96v-229l-132 -47q182 -301 183 -815q0 -324 -105.5 -446t-355.5 -122t-355.5 122t-105.5 446zM403 542.5q0 -155.5 25 -204.5t82 -49 t81.5 49t24.5 204.5t-24.5 205t-81.5 49.5t-82 -49.5t-25 -205z" />
<glyph unicode="&#xf1;" horiz-adv-x="1093" d="M86 1085h322l12 -94q68 63 137.5 91t173.5 28q150 0 214.5 -80t64.5 -246v-784h-357v707q0 88 -73 88q-76 0 -129 -72v-723h-359v774zM104 1270q25 401 269 401q76 0 136 -39t101 -76.5t70 -37.5q56 4 55 83v11l254 -31q-25 -401 -268 -401q-76 0 -136.5 38.5 t-101.5 76.5t-69 38q-56 -4 -56 -83v-11z" />
<glyph unicode="&#xf2;" horiz-adv-x="1019" d="M49 543q0 322 105.5 444.5t355.5 122.5t355.5 -123t105.5 -444q0 -324 -105.5 -446t-355.5 -122t-355.5 122t-105.5 446zM211 1638h401l90 -426h-366zM403 542.5q0 -155.5 25 -204.5t82 -49t81.5 49t24.5 204.5t-24.5 205t-81.5 49.5t-82 -49.5t-25 -205z" />
<glyph unicode="&#xf3;" horiz-adv-x="1019" d="M49 543q0 322 105.5 444.5t355.5 122.5t355.5 -123t105.5 -444q0 -324 -105.5 -446t-355.5 -122t-355.5 122t-105.5 446zM317 1212l91 426h401l-125 -426h-367zM403 542.5q0 -155.5 25 -204.5t82 -49t81.5 49t24.5 204.5t-24.5 205t-81.5 49.5t-82 -49.5t-25 -205z" />
<glyph unicode="&#xf4;" horiz-adv-x="1019" d="M49 543q0 322 105.5 444.5t355.5 122.5t355.5 -123t105.5 -444q0 -324 -105.5 -446t-355.5 -122t-355.5 122t-105.5 446zM129 1212l180 426h402l180 -426h-293l-88 172l-88 -172h-293zM403 542.5q0 -155.5 25 -204.5t82 -49t81.5 49t24.5 204.5t-24.5 205t-81.5 49.5 t-82 -49.5t-25 -205z" />
<glyph unicode="&#xf5;" horiz-adv-x="1019" d="M49 543q0 322 105.5 444.5t355.5 122.5t355.5 -123t105.5 -444q0 -324 -105.5 -446t-355.5 -122t-355.5 122t-105.5 446zM68 1270q25 401 268 401q76 0 136 -39t101 -76.5t70 -37.5q56 4 56 83q0 5 -1 11l254 -31q-25 -401 -268 -401q-76 0 -136.5 38.5t-101 76.5 t-69.5 38q-56 -4 -56 -83q0 -5 1 -11zM403 542.5q0 -155.5 25 -204.5t82 -49t81.5 49t24.5 204.5t-24.5 205t-81.5 49.5t-82 -49.5t-25 -205z" />
<glyph unicode="&#xf6;" horiz-adv-x="1019" d="M49 543q0 322 105.5 444.5t355.5 122.5t355.5 -123t105.5 -444q0 -324 -105.5 -446t-355.5 -122t-355.5 122t-105.5 446zM82 1235v362h367v-362h-367zM403 542.5q0 -155.5 25 -204.5t82 -49t81.5 49t24.5 204.5t-24.5 205t-81.5 49.5t-82 -49.5t-25 -205zM571 1235v362 h367v-362h-367z" />
<glyph unicode="&#xf7;" horiz-adv-x="1474" d="M184 631v336h1106v-336h-1106zM551 184v375h373v-375h-373zM551 1038v375h373v-375h-373z" />
<glyph unicode="&#xf8;" horiz-adv-x="1019" d="M49 543q0 322 105.5 444.5t355.5 122.5q184 0 285 -63l26 38h125l-76 -108q100 -131 101 -434q0 -324 -105.5 -446t-355.5 -122q-184 0 -287 62l-24 -37h-125l73 106q-98 126 -98 437zM403 479l187 271q-20 47 -80 47q-57 0 -82 -49.5t-25 -204.5v-64zM428 334 q23 -45 82 -45q57 0 81.5 49t24.5 205q0 43 -2 61z" />
<glyph unicode="&#xf9;" horiz-adv-x="1093" d="M84 301v784h356v-706q0 -88 72 -88q74 0 131 71v723h356v-774l9 -311h-322l-12 94q-68 -63 -137.5 -91t-174.5 -28q-150 0 -214 80t-64 246zM236 1638h401l90 -426h-367z" />
<glyph unicode="&#xfa;" horiz-adv-x="1093" d="M84 301v784h356v-706q0 -88 72 -88q74 0 131 71v723h356v-774l9 -311h-322l-12 94q-68 -63 -137.5 -91t-174.5 -28q-150 0 -214 80t-64 246zM362 1212l91 426h401l-125 -426h-367z" />
<glyph unicode="&#xfb;" horiz-adv-x="1093" d="M84 301v784h356v-706q0 -88 72 -88q74 0 131 71v723h356v-774l9 -311h-322l-12 94q-68 -63 -137.5 -91t-174.5 -28q-150 0 -214 80t-64 246zM162 1212l180 426h401l181 -426h-293l-88 172l-88 -172h-293z" />
<glyph unicode="&#xfc;" horiz-adv-x="1093" d="M84 301v784h356v-706q0 -88 72 -88q74 0 131 71v723h356v-774l9 -311h-322l-12 94q-68 -63 -137.5 -91t-174.5 -28q-150 0 -214 80t-64 246zM115 1235v362h366v-362h-366zM604 1235v362h367v-362h-367z" />
<glyph unicode="&#xfd;" horiz-adv-x="1048" d="M14 1085h379l131 -698l131 698h379l-323 -1077l-148 -418h-403l168 396zM342 1212l90 426h402l-125 -426h-367z" />
<glyph unicode="&#xfe;" horiz-adv-x="1089" d="M94 -410v2048h359v-620q76 92 225 92q362 0 362 -567.5t-362 -567.5q-150 0 -225 93v-478h-359zM453 362q55 -72 120 -71q59 0 81 51t22 200.5t-21.5 201t-81.5 51.5q-66 0 -120 -72v-361z" />
<glyph unicode="&#xff;" horiz-adv-x="1048" d="M14 1085h379l131 -698l131 698h379l-323 -1077l-148 -418h-403l168 396zM96 1235v362h367v-362h-367zM586 1235v362h366v-362h-366z" />
<glyph unicode="&#x152;" horiz-adv-x="1579" d="M76 798.5q0 309.5 57 481.5t182 244.5t349 72.5h831v-327h-424v-291h336v-326h-336v-325h447v-328h-854q-223 0 -348.5 72.5t-182.5 244.5t-57 481.5zM446 799q0 -94 2.5 -150.5t9.5 -118t20.5 -93t37 -60.5t59 -39t87.5 -10h40v942h-40q-51 0 -87 -10.5t-59.5 -39 t-37 -60.5t-20.5 -93t-9.5 -117.5t-2.5 -150.5z" />
<glyph unicode="&#x153;" horiz-adv-x="1579" d="M49 543q0 322 105.5 444.5t355.5 122.5q182 0 283 -113q98 113 284 113q258 0 356.5 -137t98.5 -434v-101h-543q0 -96 16.5 -137t67.5 -41q82 0 82 98l363 -43q0 -66 -9.5 -111.5t-36 -91.5t-73.5 -74t-126 -45.5t-190 -17.5q-195 0 -292 109q-96 -109 -281 -109 q-250 0 -355.5 122t-105.5 446zM403 542.5q0 -155.5 25 -204.5t82 -49t81.5 49t24.5 204.5t-24.5 205t-81.5 49.5t-82 -49.5t-25 -205zM989 649h162q0 98 -16.5 137t-61.5 39q-47 0 -65.5 -40t-18.5 -136z" />
<glyph unicode="&#x178;" horiz-adv-x="1099" d="M-8 1597h377l182 -702l180 702h377l-379 -1081l6 -516h-368l4 516zM121 1706v362h366v-362h-366zM610 1706v362h367v-362h-367z" />
<glyph unicode="&#x2c6;" horiz-adv-x="1269" d="M254 1212l180 426h402l180 -426h-293l-88 172l-88 -172h-293z" />
<glyph unicode="&#x2dc;" horiz-adv-x="1269" d="M193 1270q25 401 268 401q76 0 136 -39t101 -76.5t70 -37.5q56 4 56 83q0 5 -1 11l254 -31q-25 -401 -268 -401q-76 0 -136.5 38.5t-101.5 76.5t-69 38q-56 -4 -56 -83v-11z" />
<glyph unicode="&#x2000;" horiz-adv-x="1071" />
<glyph unicode="&#x2001;" horiz-adv-x="2142" />
<glyph unicode="&#x2002;" horiz-adv-x="1071" />
<glyph unicode="&#x2003;" horiz-adv-x="2142" />
<glyph unicode="&#x2004;" horiz-adv-x="712" />
<glyph unicode="&#x2005;" horiz-adv-x="534" />
<glyph unicode="&#x2006;" horiz-adv-x="356" />
<glyph unicode="&#x2007;" horiz-adv-x="356" />
<glyph unicode="&#x2008;" horiz-adv-x="266" />
<glyph unicode="&#x2009;" horiz-adv-x="428" />
<glyph unicode="&#x200a;" horiz-adv-x="118" />
<glyph unicode="&#x2010;" horiz-adv-x="843" d="M111 518v336h622v-336h-622z" />
<glyph unicode="&#x2011;" horiz-adv-x="843" d="M111 518v336h622v-336h-622z" />
<glyph unicode="&#x2012;" horiz-adv-x="843" d="M111 518v336h622v-336h-622z" />
<glyph unicode="&#x2013;" d="M111 518v336h843v-336h-843z" />
<glyph unicode="&#x2014;" horiz-adv-x="2088" d="M111 518v336h1867v-336h-1867z" />
<glyph unicode="&#x2018;" horiz-adv-x="491" d="M-18 1085l131 512h301l-41 -512h-391z" />
<glyph unicode="&#x2019;" horiz-adv-x="491" d="M78 1085l41 512h391l-131 -512h-301z" />
<glyph unicode="&#x201a;" horiz-adv-x="491" d="M37 -336l41 512h391l-131 -512h-301z" />
<glyph unicode="&#x201c;" horiz-adv-x="915" d="M-18 1085l131 512h301l-41 -512h-391zM422 1085l131 512h301l-41 -512h-391z" />
<glyph unicode="&#x201d;" horiz-adv-x="931" d="M78 1085l41 512h391l-131 -512h-301zM518 1085l41 512h391l-131 -512h-301z" />
<glyph unicode="&#x201e;" horiz-adv-x="931" d="M37 -336l41 512h391l-131 -512h-301zM477 -336l41 512h391l-131 -512h-301z" />
<glyph unicode="&#x2022;" horiz-adv-x="962" d="M135 340v692h692v-692h-692z" />
<glyph unicode="&#x2026;" horiz-adv-x="2088" d="M186 0v362h367v-362h-367zM862 0v362h365v-362h-365zM1536 0v362h367v-362h-367z" />
<glyph unicode="&#x202f;" horiz-adv-x="428" />
<glyph unicode="&#x2039;" horiz-adv-x="655" d="M106 537v217l426 293v-289l-120 -113l120 -110v-291z" />
<glyph unicode="&#x203a;" horiz-adv-x="655" d="M123 244v291l121 110l-121 113v289l426 -293v-217z" />
<glyph unicode="&#x205f;" horiz-adv-x="534" />
<glyph unicode="&#x20ac;" horiz-adv-x="1126" d="M35 514v227h108v82h-108v228h117q25 299 132 418.5t355 119.5q264 0 358.5 -94t94.5 -321l-363 -48q-2 86 -26.5 116t-81.5 30q-53 0 -77 -49t-32 -172h367l-62 -228h-309v-82h287l-62 -227h-221q8 -125 31.5 -173t77.5 -48q57 0 81.5 29.5t26.5 115.5l363 -47 q0 -227 -94.5 -321.5t-358.5 -94.5q-250 0 -356.5 120t-130.5 419h-117z" />
<glyph unicode="&#x2122;" horiz-adv-x="1265" d="M37 1440v157h475v-157h-152v-396h-172v396h-151zM557 1044v553h240l80 -305l79 305h240v-553h-166v285l-76 -285h-155l-76 285v-285h-166z" />
<glyph unicode="&#xe000;" horiz-adv-x="1085" d="M0 1085h1085v-1085h-1085v1085z" />
<glyph unicode="&#xe38c;" horiz-adv-x="1294" d="M37 788v297h123v228q0 170 98 260t289 90q123 0 198 -27l-16 -293q-49 16 -104 17q-57 0 -83 -22.5t-26 -75.5v-177h186v-297h-186v-788h-356v788h-123zM838 1235v362h366v-362h-366zM844 0v1085h356v-1085h-356z" />
<glyph unicode="&#xfb01;" horiz-adv-x="1294" d="M37 788v297h123v228q0 170 98 260t289 90q123 0 198 -27l-16 -293q-49 16 -104 17q-57 0 -83 -22.5t-26 -75.5v-177h186v-297h-186v-788h-356v788h-123zM838 1235v362h366v-362h-366zM844 0v1085h356v-1085h-356z" />
<glyph unicode="&#xe38d;" horiz-adv-x="1302" d="M37 788v297h123v228q0 170 98 260t289 90q123 0 198 -27l-16 -293q-49 16 -104 17q-57 0 -83 -22.5t-26 -75.5v-177h186v-297h-186v-788h-356v788h-123zM848 0v1638h356v-1638h-356z" />
<glyph unicode="&#xfb02;" horiz-adv-x="1302" d="M37 788v297h123v228q0 170 98 260t289 90q123 0 198 -27l-16 -293q-49 16 -104 17q-57 0 -83 -22.5t-26 -75.5v-177h186v-297h-186v-788h-356v788h-123zM848 0v1638h356v-1638h-356z" />
<glyph unicode="&#xfb03;" horiz-adv-x="2043" d="M37 788v297h123v228q0 170 98 260t289 90q123 0 198 -27l-16 -293q-49 16 -104 17q-57 0 -83 -22.5t-26 -75.5v-177h186v-297h-186v-788h-356v788h-123zM786 788v297h123v228q0 170 98.5 260t288.5 90q123 0 199 -27l-16 -293q-49 16 -105 17q-57 0 -82.5 -22.5 t-25.5 -75.5v-177h186v-297h-186v-788h-357v788h-123zM1587 1235v362h367v-362h-367zM1593 0v1085h357v-1085h-357z" />
<glyph unicode="&#xfb04;" horiz-adv-x="2052" d="M37 788v297h123v228q0 170 98 260t289 90q123 0 198 -27l-16 -293q-49 16 -104 17q-57 0 -83 -22.5t-26 -75.5v-177h186v-297h-186v-788h-356v788h-123zM786 788v297h123v228q0 170 98.5 260t288.5 90q123 0 199 -27l-16 -293q-49 16 -105 17q-57 0 -82.5 -22.5 t-25.5 -75.5v-177h186v-297h-186v-788h-357v788h-123zM1597 0v1638h357v-1638h-357z" />
</font>
</defs>
</svg>
