<?xml version="1.0" standalone="no"?>
<!DOCTYPE svg PUBLIC "-//W3C//DTD SVG 1.1//EN" "http://www.w3.org/Graphics/SVG/1.1/DTD/svg11.dtd" >
<svg xmlns="http://www.w3.org/2000/svg">
<metadata>
This is a custom SVG webfont generated by Font Squirrel.
Copyright   : Copyright c 2008 by Village Type  Design LLC All rights reserved
Designer    : Chester Jenkins  Village
Foundry     : Village Type  Design LLC
Foundry URL : httpvllgcom
</metadata>
<defs>
<font id="GalaxiePolarisCondensedBkIt" horiz-adv-x="1064" >
<font-face units-per-em="2048" ascent="1638" descent="-410" />
<missing-glyph horiz-adv-x="360" />
<glyph unicode=" "  horiz-adv-x="360" />
<glyph unicode="&#x09;" horiz-adv-x="360" />
<glyph unicode="&#xa0;" horiz-adv-x="360" />
<glyph unicode="!" horiz-adv-x="372" d="M27 0l18 156h156l-19 -156h-155zM109 414l100 1183h180l-190 -1183h-90z" />
<glyph unicode="&#x22;" horiz-adv-x="632" d="M195 1085l28 512h168l-92 -512h-104zM438 1085l29 512h168l-92 -512h-105z" />
<glyph unicode="#" d="M55 418l15 123h155l142 483h-146l15 123h165l123 418h119l-121 -418h256l123 418h121l-123 -418h137l-14 -123h-158l-141 -483h147l-14 -123h-168l-121 -418h-121l121 418h-256l-123 -418h-118l120 418h-135zM346 541h258l139 483h-258z" />
<glyph unicode="$" horiz-adv-x="849" d="M35 293l49 123q123 -80 287 -80q225 0 250 199q3 20 2 38q0 67 -36 100q-46 42 -175 77q-133 33 -201 93q-54 49 -54 148q0 24 3 51q39 305 389 306l94 217h125l-98 -226q92 -12 168 -55l-50 -119q-92 66 -251 66q-215 0 -238 -184q-1 -15 -1 -29q0 -61 30 -92 q37 -39 157 -74q57 -14 91 -26.5t77 -36t64.5 -54t34.5 -82.5q7 -31 7 -66q0 -24 -3 -50q-39 -319 -406 -320l-94 -217h-125l100 225q-124 21 -196 68z" />
<glyph unicode="%" horiz-adv-x="1568" d="M133 1049q0 537 344 536q123 0 180.5 -71.5t57.5 -247.5q0 -539 -344 -539q-123 0 -180.5 73t-57.5 249zM242 0l989 1565h121l-990 -1565h-120zM254 1059q0 -127 30.5 -175t100.5 -48q113 0 162 102t49 315q0 127 -32 175.5t-101 48.5q-113 0 -161 -102.5t-48 -315.5z M879 299q0 539 344 539q123 0 180 -73t57 -249q0 -537 -344 -536q-123 0 -180 71.5t-57 247.5zM999 311q0 -127 31 -175t100 -48q113 0 162 102.5t49 315.5q0 127 -31.5 175t-101.5 48q-113 0 -161 -102.5t-48 -315.5z" />
<glyph unicode="&#x26;" horiz-adv-x="1052" d="M29 322q0 328 239 544q-82 178 -82 334q0 201 86 309.5t263 108.5q141 0 198.5 -58.5t57.5 -166.5q0 -88 -21.5 -158t-76 -134.5t-99.5 -106.5t-135 -115l-33 -27q113 -219 311 -479q102 219 103 473q0 68 -9 110l127 -45q2 -23 3 -67q0 -293 -146 -570q86 -106 105 -114 l-23 -180q-57 43 -164 178q-156 -178 -373 -178q-331 0 -331 342zM166 340q0 -133 56.5 -187.5t160.5 -54.5q162 0 279 150q-190 248 -338 512q-158 -168 -158 -420zM317 1212.5q0 -118.5 60 -258.5q82 63 118.5 95t85 84.5t67 105.5t18.5 117q0 141 -144 141 q-104 0 -154.5 -83t-50.5 -201.5z" />
<glyph unicode="'" horiz-adv-x="389" d="M195 1085l28 512h168l-92 -512h-104z" />
<glyph unicode="(" horiz-adv-x="561" d="M96 453q0 352 107.5 692t257.5 555h131q-358 -625 -359 -1251q0 -375 119 -715h-131q-55 121 -90 314.5t-35 404.5z" />
<glyph unicode=")" horiz-adv-x="561" d="M-20 -266q358 625 358 1251q0 375 -119 715h131q55 -121 90 -314.5t35 -404.5q0 -352 -107.5 -692t-256.5 -555h-131z" />
<glyph unicode="*" horiz-adv-x="675" d="M137 1354l45 100l203 -90l12 233h107l-45 -233l227 90l21 -100l-232 -56l127 -174l-94 -61l-98 199l-148 -199l-78 61l168 174z" />
<glyph unicode="+" horiz-adv-x="1474" d="M184 737v123h490v492h127v-492h489v-123h-489v-491h-127v491h-490z" />
<glyph unicode="," horiz-adv-x="368" d="M-45 -313l86 469h162l-152 -469h-96z" />
<glyph unicode="-" horiz-adv-x="792" d="M115 625l14 123h551l-14 -123h-551z" />
<glyph unicode="." horiz-adv-x="368" d="M25 0l18 156h156l-19 -156h-155z" />
<glyph unicode="/" horiz-adv-x="700" d="M-61 -184l710 1966h144l-713 -1966h-141z" />
<glyph unicode="0" d="M98 496q0 193 13.5 346t50.5 296.5t95 239t154.5 151.5t223.5 56q131 0 204.5 -41t113.5 -154.5t40 -320.5q0 -193 -13 -346.5t-50 -296.5t-95.5 -238.5t-154.5 -151.5t-223 -56q-131 0 -205 40.5t-114 154.5t-40 321zM231 498q0 -240 53.5 -320t186.5 -80q389 0 389 969 q0 240 -53 319.5t-186 79.5q-390 1 -390 -968z" />
<glyph unicode="1" d="M63 0l15 121h348l154 1253q-141 -180 -402 -272l17 133q141 49 240.5 135t193.5 215h112l-180 -1464h348l-14 -121h-832z" />
<glyph unicode="2" d="M43 0q25 197 46.5 300t75.5 191.5t123.5 141.5t209.5 135q217 125 277.5 216t60.5 278q0 106 -48.5 155t-164.5 49q-139 0 -203 -74.5t-84 -240.5l-129 43q27 193 121 292t311 99q182 0 257 -73.5t75 -225.5q0 -131 -22.5 -222t-83 -162t-125 -117t-189.5 -117 q-111 -63 -173.5 -114.5t-99 -120t-50 -130t-27.5 -182.5h669l-14 -121h-813z" />
<glyph unicode="3" d="M92 367l137 47q-6 -43 -5 -81q0 -235 222 -235q164 0 246 95.5t82 302.5q0 244 -215 243h-158l17 125h157q264 0 265 398q0 111 -52 158q-52 46 -170 46q-141 0 -202.5 -73.5t-81.5 -237.5l-129 41q29 190 125 289.5t305 99.5q180 0 260 -70.5t80 -234.5 q0 -199 -66.5 -318.5t-181.5 -154.5q180 -53 180 -301q0 -526 -479 -526q-193 0 -271 97q-67 82 -67 233q0 27 2 57z" />
<glyph unicode="4" d="M59 373l13 110l659 1102h158l-135 -1093h190l-14 -119h-191l-45 -373h-127l45 373h-553zM203 485l426 7l116 905z" />
<glyph unicode="5" d="M96 360l140 48q-5 -42 -6 -79q0 -230 212 -231q164 0 254 138.5t90 412.5q0 143 -50 202.5t-150 59.5q-158 0 -264 -149l-117 39l125 764h671l-14 -121h-555l-90 -551q119 135 287 135q143 0 218 -83t75 -277q0 -346 -129 -517t-367 -171q-188 0 -267 95q-65 79 -66 223 q0 29 3 62z" />
<glyph unicode="6" d="M111 408q0 158 28 387q53 442 163 616t353 174q193 0 270 -89q68 -79 67 -234q0 -21 -1 -43l-139 -48q5 42 5 78q0 90 -30 144q-41 76 -184 75q-66 0 -114 -15t-83.5 -56t-59.5 -89t-44 -136.5t-33.5 -173.5t-29.5 -224q141 223 376 223q137 0 202 -79.5t65 -251.5 q0 -330 -108.5 -508t-362.5 -178q-186 0 -263 94t-77 334zM244 389q0 -162 52 -227.5t169 -65.5q319 0 319 537q0 131 -47 187.5t-141 56.5q-104 0 -180 -60.5t-154 -185.5q-18 -144 -18 -242z" />
<glyph unicode="7" d="M225 0l502 1143l139 303l-235 -2h-379l14 121h750l-10 -92l-639 -1473h-142z" />
<glyph unicode="8" d="M80 309q0 403 282 498q-70 20 -115.5 92t-45.5 182q0 254 108.5 379t335.5 125q180 0 262 -71.5t82 -233.5q0 -205 -74.5 -327t-179.5 -146q35 -14 60.5 -30.5t56.5 -49.5t47 -89t16 -134q0 -524 -469 -524q-366 -1 -366 329zM213 334q0 -236 248 -236q326 0 325 404 q0 135 -63.5 189t-179.5 54q-330 1 -330 -411zM332 1081q0 -121 57 -171t166 -50q299 0 299 391q0 117 -53 166t-172 49q-150 0 -223.5 -86t-73.5 -299z" />
<glyph unicode="9" d="M98 346l140 47q-5 -42 -5 -77q0 -90 29 -144q41 -76 184 -76q78 0 132.5 27t91.5 73t63.5 139t43 191.5t34.5 264.5q-139 -223 -377 -224q-137 0 -201.5 80t-64.5 252q0 330 109.5 508t361.5 178q186 0 263 -94t77 -334q0 -162 -29 -391q-53 -440 -161.5 -613 t-354.5 -173q-193 0 -269 89q-68 79 -68 234q0 21 1 43zM305 932q0 -131 47 -187.5t144 -56.5q102 0 178 60.5t153 185.5q18 143 19 242q0 162 -52.5 227t-168.5 65q-320 1 -320 -536z" />
<glyph unicode=":" horiz-adv-x="368" d="M25 0l18 156h156l-19 -156h-155zM117 752l18 155h156l-19 -155h-155z" />
<glyph unicode=";" horiz-adv-x="368" d="M-45 -313l86 469h162l-152 -469h-96zM117 752l18 155h156l-19 -155h-155z" />
<glyph unicode="&#x3c;" horiz-adv-x="1474" d="M184 733v131l1106 492v-133l-669 -289l-318 -135l318 -135l669 -289v-133z" />
<glyph unicode="=" horiz-adv-x="1474" d="M184 555v125h1106v-125h-1106zM184 918v124h1106v-124h-1106z" />
<glyph unicode="&#x3e;" horiz-adv-x="1474" d="M184 242v133l670 289l317 135l-317 135l-670 289v133l1106 -492v-131z" />
<glyph unicode="?" horiz-adv-x="905" d="M143 1221q31 211 127.5 305t296.5 94q174 0 255 -68.5t81 -226.5q0 -96 -17.5 -172t-39 -121t-67.5 -89t-72.5 -62.5t-85.5 -53.5l-31 -18q-90 -55 -119 -107.5t-29 -150.5q0 -51 11 -137h-95q-29 96 -28 174q0 121 47 188.5t145 120.5q63 39 97 64.5t72 71.5t53.5 109.5 t15.5 153.5q0 113 -50.5 158t-156.5 45q-137 0 -198.5 -73.5t-84.5 -247.5zM276 0l19 156h156l-19 -156h-156z" />
<glyph unicode="@" horiz-adv-x="1851" d="M70 295q0 1343 991 1343q393 0 558 -169t165 -472q0 -141 -14.5 -258.5t-54.5 -233.5t-104.5 -195t-172 -128t-248.5 -49h-90l4 133q-133 -156 -309 -155q-160 0 -227.5 90t-67.5 264q0 641 420 641q176 0 268 -154l29 133h114l-35 -225l-73 -610q111 0 191.5 48 t125.5 119.5t71.5 177t34 198t7.5 204.5q0 121 -27 210t-92.5 163t-187 112t-299.5 38q-190 0 -337 -61.5t-242 -168t-155.5 -263.5t-85 -334t-24.5 -394q0 -322 148.5 -466t506.5 -144q219 0 363.5 31.5t302.5 95.5l35 -111q-166 -66 -324 -100.5t-391 -34.5 q-412 0 -593 170t-181 555zM639 500q0 -135 44 -202t153 -67q141 0 270 156l53 444q-88 156 -231 156q-289 0 -289 -487z" />
<glyph unicode="A" horiz-adv-x="987" d="M-27 0l533 1616h203l141 -1616h-137l-29 346h-463l-110 -346h-138zM258 465h416l-80 1030z" />
<glyph unicode="B" horiz-adv-x="1036" d="M37 0l194 1597h471q141 0 211 -62t70 -216q0 -223 -66.5 -338t-156.5 -152q160 -43 160 -286q0 -543 -398 -543h-485zM188 121h316q131 0 203.5 85t72.5 320q0 131 -50 181.5t-138 50.5h-326zM281 881h315q109 0 176.5 103t67.5 304q0 106 -42 147.5t-132 41.5h-314z" />
<glyph unicode="C" horiz-adv-x="995" d="M86 492q0 252 30.5 452.5t96.5 354t176.5 236.5t259.5 83q215 0 285 -98q54 -76 54 -222q0 -43 -5 -92l-141 -47q8 63 10 103v16q0 33 -6 73q-8 50 -29.5 77.5t-68 48t-115.5 20.5q-201 0 -306.5 -271.5t-105.5 -731.5q0 -223 52.5 -308.5t187.5 -85.5q150 0 209 75 t84 263l127 -45q-27 -215 -121 -314t-311 -99q-199 0 -281 109.5t-82 402.5z" />
<glyph unicode="D" horiz-adv-x="1050" d="M37 0l194 1597h301q254 0 356.5 -107.5t102.5 -389.5q0 -547 -146.5 -823.5t-490.5 -276.5h-317zM188 121h185q483 0 483 973q0 217 -69.5 300t-249.5 83h-185z" />
<glyph unicode="E" horiz-adv-x="876" d="M39 0l194 1597h641l-14 -120h-506l-73 -596h438l-14 -121h-439l-78 -639h543l-14 -121h-678z" />
<glyph unicode="F" horiz-adv-x="817" d="M39 0l194 1597h639l-14 -120h-504l-73 -596h440l-14 -121h-441l-92 -760h-135z" />
<glyph unicode="G" horiz-adv-x="1044" d="M84 487q0 256 28.5 454t94 354.5t181.5 239.5t280 83q213 0 285.5 -97.5t50.5 -314.5l-142 -47q23 178 -18 258t-193 80q-150 0 -249 -135t-141 -355.5t-42 -519.5q0 -219 54.5 -303t195.5 -84q158 0 274 50l68 555h-213l14 114h344l-92 -747q-178 -92 -411 -92 q-207 0 -288 109t-81 398z" />
<glyph unicode="H" horiz-adv-x="1056" d="M39 0l194 1597h136l-88 -716h546l88 716h134l-195 -1597h-133l92 760h-547l-92 -760h-135z" />
<glyph unicode="I" horiz-adv-x="393" d="M47 0l195 1597h135l-195 -1597h-135z" />
<glyph unicode="J" horiz-adv-x="835" d="M37 309l139 47q-6 -48 -6 -86q0 -68 18 -109q28 -63 131 -63h7q117 4 160.5 64.5t64.5 210.5l149 1224h136l-150 -1222q-27 -213 -116 -304t-265 -91q-174 0 -228 86q-43 68 -43 180q0 30 3 63z" />
<glyph unicode="K" horiz-adv-x="944" d="M39 0l194 1597h136l-113 -888l561 888h156l-459 -704l299 -893h-154l-245 768l-185 -274l-55 -494h-135z" />
<glyph unicode="L" horiz-adv-x="774" d="M39 0l194 1597h136l-181 -1476h478l-15 -121h-612z" />
<glyph unicode="M" horiz-adv-x="1288" d="M39 0l194 1597h197l158 -1394l497 1394h195l-195 -1597h-133l172 1343l-489 -1343h-146l-161 1343l-154 -1343h-135z" />
<glyph unicode="N" horiz-adv-x="1038" d="M39 0l194 1597h168l240 -958l98 -418l56 510l106 866h129l-194 -1597h-166l-242 958l-98 418l-58 -510l-102 -866h-131z" />
<glyph unicode="O" horiz-adv-x="1032" d="M84 471q0 217 26.5 407.5t85 363.5t170 274.5t265.5 101.5q186 0 265 -113.5t79 -378.5q0 -217 -26.5 -407.5t-85 -363.5t-170 -274t-265.5 -101q-186 0 -265 113.5t-79 377.5zM219 473q0 -207 50 -290t173 -83q109 0 190 99.5t124 259t63.5 326.5t20.5 339 q0 207 -51.5 290t-174.5 83q-109 0 -189.5 -99.5t-122.5 -259t-62.5 -327.5t-20.5 -338z" />
<glyph unicode="P" horiz-adv-x="905" d="M39 0l194 1597h338q156 0 240 -74.5t84 -265.5q0 -602 -436 -602h-205l-80 -655h-135zM268 778h197q137 0 215 103.5t78 361.5q0 129 -52.5 181.5t-156.5 52.5h-195z" />
<glyph unicode="Q" horiz-adv-x="1032" d="M84 471q0 217 26.5 407.5t85 363.5t170 274.5t265.5 101.5q186 0 265 -113.5t79 -378.5q0 -168 -14.5 -320.5t-52.5 -304t-96 -262t-152.5 -181t-213.5 -76.5l322 -283l-70 -131l-503 487q-111 105 -111 416zM219 473q0 -207 50 -290t173 -83q109 0 190 99.5t124 259 t63.5 326.5t20.5 339q0 207 -51.5 290t-174.5 83q-109 0 -189.5 -99.5t-122.5 -259t-62.5 -327.5t-20.5 -338z" />
<glyph unicode="R" horiz-adv-x="940" d="M37 0l194 1597h351q160 0 239.5 -65.5t79.5 -257.5q0 -270 -82 -407.5t-209 -168.5l172 -698h-151l-156 684h-219l-82 -684h-137zM272 805h211q279 0 279 452q0 125 -50 172.5t-157 47.5h-203z" />
<glyph unicode="S" horiz-adv-x="950" d="M41 393l137 47q-10 -49 -10 -98q0 -12 1 -25q3 -61 17.5 -110t63.5 -79t129 -30q170 0 253 93.5t83 314.5q0 109 -53.5 162t-186.5 92q-61 18 -95 31.5t-80 40t-69.5 58.5t-41 84t-17.5 122q0 524 444 524q199 0 265 -102q49 -76 48 -207q0 -45 -5 -97l-142 -45l10 95 q1 12 1 26q0 27 -5 60q-6 49 -25.5 77.5t-60 50t-102.5 21.5q-291 0 -291 -393q0 -96 49.5 -145.5t173.5 -86.5q82 -23 131.5 -43t97.5 -58t69.5 -100.5t21.5 -152.5q0 -543 -490 -543q-207 0 -274 106q-52 81 -52 220q0 42 5 90z" />
<glyph unicode="T" horiz-adv-x="823" d="M139 1477l15 120h741l-14 -120h-303l-181 -1477h-135l180 1477h-303z" />
<glyph unicode="U" horiz-adv-x="1032" d="M80 399l147 1198h138l-146 -1194q-7 -57 -7 -102q0 -89 27 -134q40 -69 205.5 -69t224 69t79.5 236l145 1194h137l-147 -1198q-27 -221 -121 -321.5t-331.5 -100.5t-307.5 100q-50 72 -50 208q0 52 7 114z" />
<glyph unicode="V" horiz-adv-x="987" d="M168 1597h137l119 -1495l483 1495h137l-536 -1615h-203z" />
<glyph unicode="W" horiz-adv-x="1349" d="M176 -20l10 1617h129l-16 -1423l406 1423h167l56 -1423l332 1423h129l-388 -1617h-182l-53 1433l-408 -1433h-182z" />
<glyph unicode="X" horiz-adv-x="1073" d="M-25 0l480 838l-240 759h150l202 -665l367 665h149l-424 -759l277 -838h-156l-237 731l-414 -731h-154z" />
<glyph unicode="Y" horiz-adv-x="991" d="M156 1597h143l207 -839l412 839h141l-506 -993l-72 -604h-135l76 604z" />
<glyph unicode="Z" horiz-adv-x="948" d="M-16 0l12 100l672 1137l145 244l-326 -2h-301l15 118h776l-12 -100l-672 -1137l-150 -243l330 2h340l-14 -119h-815z" />
<glyph unicode="[" horiz-adv-x="561" d="M90 -266l240 1966h311l-14 -121h-174l-211 -1724h174l-15 -121h-311z" />
<glyph unicode="\" horiz-adv-x="700" d="M180 1782h142l229 -1966h-143z" />
<glyph unicode="]" horiz-adv-x="579" d="M-51 -266l14 121h174l211 1724h-174l14 121h310l-240 -1966h-309z" />
<glyph unicode="^" horiz-adv-x="1052" d="M66 819l518 801h118l322 -801h-141l-146 371l-110 295l-187 -295l-235 -371h-139z" />
<glyph unicode="_" horiz-adv-x="675" d="M-70 -410l11 109h553l-13 -109h-551z" />
<glyph unicode="`" horiz-adv-x="1269" d="M571 1638h146l49 -426h-125z" />
<glyph unicode="a" horiz-adv-x="958" d="M59 340q0 145 18.5 270t63.5 243t133.5 185.5t210.5 67.5q174 0 271 -154l28 133h115l-35 -237l-73 -610l-25 -238h-115l2 133q-131 -154 -307 -153q-154 0 -220.5 90t-66.5 270zM197 352q0 -127 43 -190.5t147 -63.5q133 0 270 154l72 582q-94 154 -231 153 q-92 0 -155.5 -60.5t-93.5 -162.5t-41 -200.5t-11 -211.5z" />
<glyph unicode="b" horiz-adv-x="958" d="M23 0l36 238l172 1400h134l-82 -671q119 139 292 139q154 0 220.5 -90t66.5 -271q0 -145 -18.5 -270t-63.5 -242.5t-133 -185t-211 -67.5q-174 0 -268 153l-29 -133h-116zM195 252q96 -154 229 -154q92 0 155.5 60.5t93 163t41 201t11.5 210.5q0 127 -43 190.5t-147 63.5 q-137 0 -271 -153z" />
<glyph unicode="c" horiz-adv-x="868" d="M63 375q0 336 111 533.5t350 197.5q152 0 231 -67q65 -55 65 -165q0 -23 -3 -49l-135 -45q2 22 2 42q0 79 -27 119q-33 50 -141 50q-92 0 -157.5 -56t-99.5 -151.5t-48 -192.5t-14 -206q0 -158 49 -224.5t155 -66.5q117 0 164 53.5t60 157.5l125 -43 q-20 -137 -102.5 -209.5t-262.5 -72.5q-172 0 -247 91t-75 304z" />
<glyph unicode="d" horiz-adv-x="958" d="M61 340q0 145 18.5 270t63.5 243t133.5 185.5t210.5 67.5q172 0 261 -139l83 671h134l-172 -1400l-25 -238h-115l2 133q-131 -154 -307 -153q-154 0 -220.5 90t-66.5 270zM199 354q0 -129 43 -192.5t147 -63.5q133 0 270 154l72 582q-94 154 -231 153q-92 0 -155.5 -60.5 t-93.5 -162.5t-41 -199.5t-11 -210.5z" />
<glyph unicode="e" horiz-adv-x="909" d="M61 379q0 727 457 727q170 0 239.5 -84t69.5 -260q0 -88 -22 -268h-596q-12 -92 -12 -164q0 -123 45 -181.5t155 -58.5q123 0 173.5 52.5t62.5 156.5l129 -45q-20 -131 -106.5 -202.5t-270.5 -71.5q-180 0 -252 94t-72 305zM223 602h455q12 94 12 168q0 115 -42 170 t-146 55q-131 0 -195 -97t-84 -296z" />
<glyph unicode="f" horiz-adv-x="608" d="M53 -410l170 1383h-125l15 112h125l43 361q27 213 272 213q76 0 129 -21l-25 -116q-55 20 -102 20q-66 0 -101.5 -24.5t-43.5 -94.5l-41 -338h215l-15 -112h-215l-170 -1383h-131z" />
<glyph unicode="g" horiz-adv-x="958" d="M14 -143l140 45q-5 -31 -6 -58q0 -70 35 -109q48 -54 171 -54q131 0 189.5 54t72.5 156l35 271q-127 -139 -295 -139q-156 0 -223 92t-67 278q0 133 19 250t64.5 226.5t132.5 173t207 63.5q174 0 271 -154l28 133h115l-35 -237l-116 -950q-20 -164 -115.5 -246 t-294.5 -82q-174 0 -257 66q-72 58 -72 182q-1 19 1 39zM205 412q0 -139 43 -205t149 -66q139 0 269 156l67 537q-94 154 -233 153q-82 0 -142.5 -47t-92.5 -131t-46 -181t-14 -216z" />
<glyph unicode="h" horiz-adv-x="931" d="M31 0l200 1638h131l-83 -671q135 139 337 139q127 0 188 -67q49 -54 49 -133q0 -19 -3 -40l-105 -866h-131l101 825q2 16 2 31q0 53 -29 87q-37 44 -127 44q-180 0 -297 -149l-102 -838h-131z" />
<glyph unicode="i" horiz-adv-x="368" d="M37 0l133 1085h131l-133 -1085h-131zM193 1372l18 156h156l-19 -156h-155z" />
<glyph unicode="j" horiz-adv-x="368" d="M-238 -412l27 117q43 -18 98.5 -18t86 24.5t38.5 93.5l158 1280h131l-160 -1300q-27 -217 -252 -217q-78 0 -127 20zM193 1372l18 156h156l-19 -156h-155z" />
<glyph unicode="k" horiz-adv-x="901" d="M31 0l200 1638h134l-144 -1108l494 555h159l-419 -458l327 -627h-153l-271 524l-159 -176l-35 -348h-133z" />
<glyph unicode="l" horiz-adv-x="368" d="M37 0l201 1638h131l-201 -1638h-131z" />
<glyph unicode="m" horiz-adv-x="1409" d="M33 0l102 848l25 237h114l-4 -133q119 154 316 154q98 0 151.5 -43t61.5 -109q117 152 315 152q123 0 176 -65q43 -52 44 -132q0 -18 -3 -39l-106 -870h-133l100 831q3 19 3 36q0 120 -142 120q-145 0 -256 -151l-103 -836h-133l101 831q3 19 2 36q0 120 -142 120 q-145 0 -256 -151l-102 -836h-131z" />
<glyph unicode="n" horiz-adv-x="931" d="M33 0l102 848l25 237h114l-4 -133q131 154 348 154q127 0 188 -67q49 -54 49 -133q0 -19 -3 -40l-104 -866h-132l101 825q2 16 2 31q0 53 -29 87q-37 44 -127 44q-180 0 -297 -149l-102 -838h-131z" />
<glyph unicode="o" horiz-adv-x="942" d="M61 367q0 106 10.5 200.5t41 196.5t80 175t134.5 120t197 47q164 0 244 -88t80 -299q0 -106 -10.5 -200.5t-41 -197t-79.5 -175t-134 -119.5t-198 -47q-164 0 -244 88t-80 299zM197 381q0 -154 49 -220.5t153 -66.5q80 0 139.5 47t91.5 115t52 158t25.5 157.5t5.5 133.5 q0 154 -49.5 220t-153.5 66q-80 0 -139.5 -47t-91 -114.5t-52 -157.5t-25.5 -157.5t-5 -133.5z" />
<glyph unicode="p" horiz-adv-x="958" d="M-20 -410l153 1258l23 237h116l-4 -133q131 154 307 154q154 0 220.5 -90t66.5 -271q0 -145 -18.5 -270t-63.5 -242.5t-133 -185t-211 -67.5q-168 0 -260 139l-63 -529h-133zM195 252q96 -154 229 -154q92 0 155.5 60.5t93 163t41 201t11.5 210.5q0 127 -43 190.5 t-147 63.5q-137 0 -271 -153z" />
<glyph unicode="q" horiz-adv-x="958" d="M61 340q0 145 18.5 270t63.5 243t133.5 185.5t210.5 67.5q174 0 269 -154l30 133h115l-37 -237l-151 -1258h-133l63 529q-121 -139 -295 -139q-154 0 -220.5 90t-66.5 270zM199 352q0 -127 43 -190.5t147 -63.5q133 0 270 154l72 582q-94 154 -231 153 q-92 0 -155.5 -60.5t-93.5 -162.5t-41 -200.5t-11 -211.5z" />
<glyph unicode="r" horiz-adv-x="618" d="M33 0l102 848l25 237h114l-6 -135q115 156 273 156q51 0 80 -14l-23 -121q-25 8 -70 8q-141 0 -264 -154l-100 -825h-131z" />
<glyph unicode="s" horiz-adv-x="825" d="M16 254l138 45q-4 -32 -5 -59q0 -64 24 -101q34 -53 149 -53q133 0 190 60.5t57 172.5q0 94 -46 131t-163 64q-129 25 -190 73t-61 171q0 170 96 259t272 89q158 0 223 -63q54 -51 54 -158q0 -23 -2 -49l-138 -48q6 34 6 64q0 56 -21 93q-32 56 -136 56q-211 0 -211 -231 q0 -76 36 -104.5t146 -55.5q70 -14 112 -28.5t86 -44t63.5 -78.5t19.5 -123q0 -356 -408 -356q-160 0 -232 62q-61 52 -61 165q0 22 2 47z" />
<glyph unicode="t" horiz-adv-x="649" d="M104 973l15 112h127l35 287l131 10l-35 -297h237l-14 -112h-238l-94 -758q-8 -70 17.5 -94.5t83.5 -24.5q49 0 104 19l-2 -115q-57 -20 -133 -20q-229 0 -203 217l96 776h-127z" />
<glyph unicode="u" horiz-adv-x="929" d="M47 219l107 866h131l-103 -825q-2 -16 -2 -30q0 -132 154 -132q182 0 297 150l104 837h131l-104 -847l-23 -238h-112l2 133q-131 -154 -350 -153q-127 0 -187 66q-48 54 -48 133q0 19 3 40z" />
<glyph unicode="v" horiz-adv-x="851" d="M115 1085h137l104 -985l346 985h138l-404 -1101h-188z" />
<glyph unicode="w" horiz-adv-x="1228" d="M129 1085h131l16 -931l312 931h155l84 -931l244 931h133l-309 -1101h-162l-86 952l-321 -952h-162z" />
<glyph unicode="x" horiz-adv-x="894" d="M-14 0l346 561l-187 524h146l149 -456l267 456h145l-317 -524l210 -561h-151l-172 479l-285 -479h-151z" />
<glyph unicode="y" horiz-adv-x="882" d="M90 -410l199 422l-178 1073h141l129 -907l352 907h141l-425 -1022l-211 -473h-148z" />
<glyph unicode="z" horiz-adv-x="813" d="M-10 0l12 100l602 869h-473l14 116h625l-12 -100l-606 -868l522 2l-15 -119h-669z" />
<glyph unicode="{" horiz-adv-x="638" d="M31 655l14 123h41q76 0 115 38t51 145l53 423q8 68 24.5 116t53.5 97.5t106.5 76t169.5 26.5h66l-14 -121h-74q-174 0 -197 -184l-53 -441q-25 -188 -143 -237q89 -42 88 -174q0 -30 -4 -64l-54 -440q-3 -24 -2 -45q0 -69 31 -99q41 -40 123 -40h74l-15 -121h-65 q-100 0 -165 27.5t-88.5 72.5t-31.5 101q-3 23 -3 46q0 34 7 68l54 426q4 32 3 58q0 60 -20 85q-29 37 -104 37h-41z" />
<glyph unicode="|" horiz-adv-x="577" d="M106 -266l240 1966h135l-239 -1966h-136z" />
<glyph unicode="}" horiz-adv-x="638" d="M-78 -266l15 121h71q174 0 197 184l53 440q25 188 141 238q-53 27 -72 93q-13 44 -13 92q0 25 3 52l54 441q3 24 3 44q0 69 -32 100q-41 40 -123 40h-74l15 121h65q100 0 165 -27.5t88.5 -73t31.5 -101.5q3 -23 3 -45q0 -34 -7 -69l-53 -426q-4 -31 -4 -56q0 -59 20 -86 q29 -38 104 -38h41l-14 -123h-41q-76 0 -114.5 -37.5t-51.5 -144.5l-53 -424q-8 -68 -24.5 -116t-53.5 -97t-106.5 -75.5t-169.5 -26.5h-64z" />
<glyph unicode="~" horiz-adv-x="1015" d="M94 692q18 29 89 71t159 42q100 0 215 -57.5t191 -57.5q94 0 167 74l58 -84q-18 -29 -88 -71t-158 -42q-100 0 -215 57.5t-193 57.5q-94 0 -167 -74z" />
<glyph unicode="&#xa1;" horiz-adv-x="483" d="M23 -410l174 1082h90l-92 -1082h-172zM193 926l20 159h160l-21 -159h-159z" />
<glyph unicode="&#xa2;" horiz-adv-x="868" d="M92 600q0 98 9.5 189.5t39 196t76.5 180t131 128t195 54.5q16 0 49 -5l94 222h125l-104 -238q145 -52 144 -217q0 -17 -1 -35l-137 -45q1 16 1 30q0 82 -30 124q-35 49 -145 49q-96 0 -163 -63.5t-96.5 -169t-41 -196.5t-11.5 -192q0 -150 49.5 -215t153.5 -65 q119 0 164 50t59 153l125 -43q-20 -129 -99 -201t-251 -74q-29 0 -43 2l-92 -219h-127l106 238q-180 63 -180 362z" />
<glyph unicode="&#xa3;" horiz-adv-x="1046" d="M6 0l14 123h162l76 629h-162l15 112h161l39 324q12 104 31.5 167.5t63 121t120 83t193.5 25.5q111 0 180.5 -25.5t97 -73.5t34.5 -116q3 -25 3 -52q0 -47 -8 -101l-139 -48q8 69 8 121q0 77 -18 116q-31 65 -175 64q-141 0 -188 -64.5t-68 -236.5l-36 -305h356l-14 -112 h-357l-76 -629h590l-14 -123h-889z" />
<glyph unicode="&#xa4;" horiz-adv-x="1550" d="M94 193l199 200q-125 152 -125 389.5t125 388.5l-199 201l88 88l201 -203q160 125 391 125q233 0 393 -122l201 200l88 -88l-199 -201q125 -154 125 -389t-125 -389l199 -200l-88 -89l-203 201q-158 -123 -391 -123q-231 0 -391 123l-201 -201zM305 782.5 q0 -225.5 128 -349.5t341 -124q215 0 343 124t128 349.5t-128 349t-343 123.5q-213 0 -341 -123.5t-128 -349z" />
<glyph unicode="&#xa5;" horiz-adv-x="1009" d="M92 358l12 99h308l20 149l-4 17h-303l12 98h262l-229 844h145l201 -809l395 809h146l-436 -844h264l-13 -98h-303l-8 -17l-18 -149h309l-12 -99h-308l-40 -358h-138l45 358h-307z" />
<glyph unicode="&#xa6;" horiz-adv-x="587" d="M111 -266l112 928h137l-112 -928h-137zM238 772l112 928h137l-112 -928h-137z" />
<glyph unicode="&#xa7;" horiz-adv-x="948" d="M20 -61l140 47q-4 -72 -10 -139q-1 -9 -1 -17q0 -56 34 -97q40 -48 132 -48q240 0 240 327q0 80 -39 126t-135 59q-66 10 -107 22t-85 41t-64.5 84t-20.5 137q0 381 263 453q-70 16 -104 83.5t-34 151.5q0 213 99.5 331t300.5 118q182 0 239 -89q43 -67 44 -193 q0 -40 -5 -87l-139 -47q4 70 10 137q1 9 1 18q0 56 -35 98q-40 48 -130 48q-240 0 -239 -327q0 -80 38 -125t134 -60q66 -10 106.5 -22.5t84.5 -41t64.5 -84t20.5 -136.5q0 -381 -262 -453q70 -16 103.5 -84t33.5 -152q0 -213 -98 -330.5t-301 -117.5q-180 0 -240 91 q-44 68 -44 188q0 42 5 90zM246 502q0 -104 44 -141t130 -37q262 0 262 362q0 104 -44 141t-130 37q-262 0 -262 -362z" />
<glyph unicode="&#xa8;" horiz-adv-x="1269" d="M475 1372l19 156h155l-18 -156h-156zM811 1372l18 156h156l-18 -156h-156z" />
<glyph unicode="&#xa9;" horiz-adv-x="1843" d="M111 696q0 182 76.5 353.5t203.5 295t297 198.5t348 75q311 0 518 -206t207 -511q0 -182 -76.5 -353t-203.5 -295t-297 -198.5t-348 -74.5q-311 0 -518 205.5t-207 510.5zM246 713q0 -256 172 -428t434 -172q307 0 540.5 230t233.5 542q0 256 -172 428t-434 172 q-307 0 -540.5 -230.5t-233.5 -541.5zM444 709q0 272 153 431.5t400 159.5q356 0 402 -284l-146 -49q-20 209 -258 209q-184 0 -295.5 -116t-111.5 -335q0 -145 77.5 -224t223.5 -79q135 0 210 51t113 158l134 -47q-111 -287 -472 -287q-205 0 -317.5 108.5t-112.5 303.5z " />
<glyph unicode="&#xaa;" horiz-adv-x="747" d="M121 1067q0 139 27.5 258t100.5 207t179 88q158 0 211 -121l23 98h102l-31 -194l-49 -410l-18 -194h-103l2 98q-86 -121 -239 -121q-205 0 -205 291zM242 1079q0 -205 129 -205q100 0 196 121l49 406q-18 33 -31.5 52.5t-51 44t-84.5 24.5q-86 0 -146.5 -112t-60.5 -331z " />
<glyph unicode="&#xab;" horiz-adv-x="1087" d="M96 600l13 90l464 322l-14 -125l-326 -242l267 -242l-17 -124zM528 600l13 90l465 322l-15 -125l-327 -242l268 -242l-17 -124z" />
<glyph unicode="&#xac;" horiz-adv-x="1474" d="M184 1047v124h1106v-745h-125v621h-981z" />
<glyph unicode="&#xad;" horiz-adv-x="792" d="M115 625l14 123h551l-14 -123h-551z" />
<glyph unicode="&#xae;" horiz-adv-x="1843" d="M111 696q0 182 76.5 353.5t203.5 295t297 198.5t348 75q311 0 518 -206t207 -511q0 -182 -76.5 -353t-203.5 -295t-297 -198.5t-348 -74.5q-311 0 -518 205.5t-207 510.5zM246 713q0 -256 172 -428t434 -172q307 0 540.5 230t233.5 542q0 256 -172 428t-434 172 q-307 0 -540.5 -230.5t-233.5 -541.5zM528 317l117 963h393q291 0 291 -240q0 -276 -252 -329l193 -394h-162l-172 383h-234l-45 -383h-129zM719 823h276q29 0 49.5 2t51 13.5t49 31t33 58.5t14.5 92q0 135 -156 135h-276z" />
<glyph unicode="&#xaf;" horiz-adv-x="1269" d="M514 1393l14 120h418l-14 -120h-418z" />
<glyph unicode="&#xb0;" horiz-adv-x="1036" d="M129 1216.5q0 182.5 106.5 276.5t282.5 94t283.5 -94t107.5 -276.5t-107.5 -276.5t-283.5 -94t-282.5 94t-106.5 276.5zM248 1216.5q0 -131.5 70.5 -197t199.5 -65.5t199.5 65.5t70.5 197t-70.5 197t-199.5 65.5t-199.5 -65.5t-70.5 -197z" />
<glyph unicode="&#xb1;" horiz-adv-x="1474" d="M184 303v125h1106v-125h-1106zM184 907v125h490v340h127v-340h489v-125h-489v-342h-127v342h-490z" />
<glyph unicode="&#xb2;" horiz-adv-x="638" d="M94 752q27 199 67 264t185 149q106 61 138 103.5t32 124.5q0 57 -21.5 81.5t-74.5 24.5q-63 0 -92 -34.5t-39 -114.5l-105 34q16 102 67.5 151.5t176.5 49.5q104 0 150.5 -43t46.5 -131q0 -86 -27 -141.5t-68 -88t-135 -85.5q-102 -59 -132 -106.5t-42 -149.5h352 l-12 -88h-467z" />
<glyph unicode="&#xb3;" horiz-adv-x="634" d="M115 948l112 37q-4 -27 -4 -50q0 -42 15 -68q23 -40 92 -40q152 0 151 177q0 76 -25.5 100t-78.5 24h-80l12 91h80q121 0 121 174q0 59 -22.5 82.5t-77.5 23.5q-63 0 -92 -36t-39 -117l-101 32q18 104 70.5 155.5t171.5 51.5q106 0 153.5 -44t47.5 -148q0 -178 -129 -217 q100 -29 100 -175q0 -262 -275 -262q-205 0 -205 170q1 19 3 39z" />
<glyph unicode="&#xb4;" horiz-adv-x="1269" d="M635 1212l156 426h145l-176 -426h-125z" />
<glyph unicode="&#xb5;" horiz-adv-x="931" d="M-31 -410l86 709v-2l99 788h133l-103 -825q-2 -16 -1 -30q0 -132 153 -132q182 0 297 150l104 837h133l-104 -847l-23 -238h-114l2 133q-51 -68 -140.5 -110.5t-193.5 -42.5q-86 0 -143 28l-11 -90l-41 -328h-133z" />
<glyph unicode="&#xb6;" horiz-adv-x="913" d="M121 993q0 604 438 604h346l-194 -1597h-136l181 1477h-74l-180 -1477h-74l80 655h-64q-158 0 -240.5 74t-82.5 264zM260 1010q0 -129 50 -180.5t157 -51.5h55l86 699h-55q-139 0 -216 -104.5t-77 -362.5z" />
<glyph unicode="&#xb7;" horiz-adv-x="493" d="M147 600l23 174h176l-22 -174h-177z" />
<glyph unicode="&#xb8;" horiz-adv-x="1269" d="M301 -395l35 80q51 -33 117 -35q164 0 165 102q0 29 -15 48.5t-53 31.5t-59.5 16.5t-70.5 10.5l78 166h80l-43 -107q98 -16 150 -57q48 -38 48 -99q0 -99 -76 -148q-72 -46 -178 -46q-119 0 -178 37z" />
<glyph unicode="&#xb9;" horiz-adv-x="557" d="M113 752l10 88h133l74 602q-57 -59 -156 -99l12 99q94 39 181 143h88l-93 -745h138l-11 -88h-376z" />
<glyph unicode="&#xba;" horiz-adv-x="780" d="M139 1069q0 551 367 551q137 0 199.5 -69.5t62.5 -223.5q0 -551 -365 -551q-137 0 -200.5 69.5t-63.5 223.5zM256 1083q0 -117 39 -164t121 -47q236 0 235 441q0 119 -38 165t-119 46q-238 -1 -238 -441z" />
<glyph unicode="&#xbb;" horiz-adv-x="1087" d="M74 279l16 124l324 242l-264 242l14 125l387 -322l-12 -90zM506 279l16 124l324 242l-264 242l14 125l387 -322l-12 -90z" />
<glyph unicode="&#xbc;" horiz-adv-x="1382" d="M47 754l10 88h133l74 602q-57 -59 -155 -98l12 98q96 37 182 143h86l-92 -745h139l-12 -88h-377zM125 0l989 1565h121l-989 -1565h-121zM754 190l12 82l338 562h125l-70 -555h92l-10 -89h-92l-23 -190h-104l25 190h-293zM862 274l195 5l59 428z" />
<glyph unicode="&#xbd;" horiz-adv-x="1480" d="M47 754l10 88h133l74 602q-57 -59 -155 -98l12 98q96 37 182 143h86l-92 -745h139l-12 -88h-377zM125 0l989 1565h121l-989 -1565h-121zM846 0q25 199 64.5 264.5t187.5 149.5q106 61 137 103t31 124q0 57 -20.5 82t-76.5 25q-63 0 -91.5 -35t-39.5 -115l-104 35 q16 104 67.5 152.5t176.5 48.5q104 0 150 -43t46 -132q0 -86 -26.5 -141t-67.5 -87t-135 -87q-102 -59 -132 -106.5t-42 -149.5h352l-12 -88h-465z" />
<glyph unicode="&#xbe;" horiz-adv-x="1460" d="M51 948l111 39q-3 -25 -4 -46q0 -45 15 -73q22 -41 91 -41q152 0 152 179q0 76 -25.5 100t-77.5 24h-82l13 91h80q123 0 122 174q0 57 -23.5 81.5t-76.5 24.5q-66 0 -93.5 -35.5t-39.5 -117.5l-98 32q16 104 68.5 155.5t170.5 51.5q106 0 154.5 -44t48.5 -148 q0 -176 -131 -217q100 -29 100 -177q0 -260 -274 -260q-203 0 -203 169q0 18 2 38zM203 0l989 1565h121l-989 -1565h-121zM831 190l11 82l340 562h125l-70 -555h92l-10 -89h-92l-23 -190h-104l24 190h-293zM940 274l195 5l59 428z" />
<glyph unicode="&#xbf;" horiz-adv-x="907" d="M-20 -133q0 45 5 85t11 70.5t21 60.5l26 49q10 19 34 42l35 34q11 11 41.5 30.5t42.5 25.5l46 25q35 18 45 24q88 47 116.5 92.5t28.5 133.5q0 51 -12 133h96q29 -92 29 -164q0 -111 -46 -173.5t-143 -111.5q-127 -66 -180 -129t-53 -205q0 -201 209 -200 q137 0 198.5 73.5t83.5 245.5l127 -43q-31 -209 -127 -302t-297 -93q-337 0 -337 297zM418 924l22 161h164l-20 -161h-166z" />
<glyph unicode="&#xc0;" horiz-adv-x="987" d="M-27 0l533 1616h203l141 -1616h-137l-29 346h-463l-110 -346h-138zM258 465h416l-80 1030zM487 2109h146l49 -426h-125z" />
<glyph unicode="&#xc1;" horiz-adv-x="987" d="M-27 0l533 1616h203l141 -1616h-137l-29 346h-463l-110 -346h-138zM258 465h416l-80 1030zM551 1683l156 426h145l-176 -426h-125z" />
<glyph unicode="&#xc2;" horiz-adv-x="987" d="M-27 0l533 1616h203l141 -1616h-137l-29 346h-463l-110 -346h-138zM258 465h416l-80 1030zM334 1683l260 426h151l154 -426h-108l-134 326l-215 -326h-108z" />
<glyph unicode="&#xc3;" horiz-adv-x="987" d="M-27 0l533 1616h203l141 -1616h-137l-29 346h-463l-110 -346h-138zM258 465h416l-80 1030zM315 1806q18 106 70 168q50 59 122 60h5q55 -2 101 -39t84 -74t73 -39h5q39 0 60 29q22 31 35 96l97 -14q-20 -109 -72 -169q-50 -58 -124 -59h-5q-70 2 -144.5 76t-113.5 76h-5 q-37 0 -58 -31q-22 -33 -33 -94z" />
<glyph unicode="&#xc4;" horiz-adv-x="987" d="M-27 0l533 1616h203l141 -1616h-137l-29 346h-463l-110 -346h-138zM258 465h416l-80 1030zM391 1843l19 156h155l-18 -156h-156zM727 1843l18 156h156l-18 -156h-156z" />
<glyph unicode="&#xc5;" horiz-adv-x="987" d="M-27 0l533 1616h203l141 -1616h-137l-29 346h-463l-110 -346h-138zM258 465h416l-80 1030zM408 1896q12 104 82.5 170t181 66t165.5 -66q44 -53 44 -132q0 -18 -2 -38q-12 -104 -83 -169.5t-181.5 -65.5t-164.5 65q-44 53 -45 133q1 18 3 37zM498 1896q-2 -14 -2 -27 q0 -52 26 -84q33 -40 102.5 -40t112.5 40t51 111q2 17 3 32q0 49 -26 80q-34 40 -103 40q-144 0 -164 -152z" />
<glyph unicode="&#xc6;" horiz-adv-x="1464" d="M-35 0l733 1597h764l-14 -120h-553l-21 -596h433l-15 -121h-422l-20 -639h469l-14 -121h-594l14 348h-463l-156 -348h-141zM315 463h414l41 1007z" />
<glyph unicode="&#xc7;" horiz-adv-x="995" d="M86 492q0 252 30.5 452.5t96.5 354t176.5 236.5t259.5 83q215 0 285 -98q54 -76 54 -222q0 -43 -5 -92l-141 -47q8 63 10 103v16q0 33 -6 73q-8 50 -29.5 77.5t-68 48t-115.5 20.5q-201 0 -306.5 -271.5t-105.5 -731.5q0 -223 52.5 -308.5t187.5 -85.5q150 0 209 75 t84 263l127 -45q-29 -211 -117 -309t-291 -104l-22 -62q104 -18 156 -62q42 -36 43 -92q0 -13 -3 -28q-12 -84 -81.5 -126t-172.5 -42q-119 0 -178 37l37 80q49 -31 115 -35h12q140 0 151 92q4 33 -10 54.5t-52 33.5t-60.5 17.5t-73.5 11.5l57 123q-166 14 -235.5 126 t-69.5 384z" />
<glyph unicode="&#xc8;" horiz-adv-x="874" d="M37 0l194 1597h641l-14 -120h-506l-73 -596h438l-15 -121h-438l-78 -639h543l-14 -121h-678zM430 2109h145l50 -426h-125z" />
<glyph unicode="&#xc9;" horiz-adv-x="874" d="M37 0l194 1597h641l-14 -120h-506l-73 -596h438l-15 -121h-438l-78 -639h543l-14 -121h-678zM494 1683l155 426h146l-177 -426h-124z" />
<glyph unicode="&#xca;" horiz-adv-x="874" d="M37 0l194 1597h641l-14 -120h-506l-73 -596h438l-15 -121h-438l-78 -639h543l-14 -121h-678zM276 1683l261 426h151l154 -426h-109l-133 326l-215 -326h-109z" />
<glyph unicode="&#xcb;" horiz-adv-x="876" d="M39 0l194 1597h641l-14 -120h-506l-73 -596h438l-14 -121h-439l-78 -639h543l-14 -121h-678zM336 1843l18 156h156l-18 -156h-156zM672 1843l18 156h156l-19 -156h-155z" />
<glyph unicode="&#xcc;" horiz-adv-x="393" d="M47 0l195 1597h135l-195 -1597h-135zM186 2109h146l49 -426h-125z" />
<glyph unicode="&#xcd;" horiz-adv-x="393" d="M47 0l195 1597h135l-195 -1597h-135zM258 1683l156 426h145l-176 -426h-125z" />
<glyph unicode="&#xce;" horiz-adv-x="393" d="M37 1683l260 426h152l153 -426h-108l-134 326l-215 -326h-108zM47 0l195 1597h135l-195 -1597h-135z" />
<glyph unicode="&#xcf;" horiz-adv-x="393" d="M47 0l195 1597h135l-195 -1597h-135zM94 1843l19 156h155l-18 -156h-156zM430 1843l19 156h155l-18 -156h-156z" />
<glyph unicode="&#xd0;" horiz-adv-x="1140" d="M72 760l14 121h150l88 716h301q254 0 356 -107.5t102 -389.5q0 -547 -146 -823.5t-491 -276.5h-317l92 760h-149zM281 121h184q483 0 483 973q0 217 -69.5 300t-249.5 83h-185l-73 -596h280l-14 -121h-281z" />
<glyph unicode="&#xd1;" horiz-adv-x="1034" d="M37 0l194 1597h168l240 -958l98 -418l56 510l106 866h129l-194 -1597h-166l-242 958l-98 418l-58 -510l-102 -866h-131zM338 1806q18 106 70 168q50 59 122 60h5q55 -2 101 -39t84 -74t73 -39h5q39 0 59 29q22 31 36 96l96 -14q-20 -109 -71 -169q-50 -58 -124 -59h-6 q-70 2 -144.5 76t-113.5 76h-4q-37 0 -58 -31q-22 -33 -34 -94z" />
<glyph unicode="&#xd2;" horiz-adv-x="1028" d="M84 471q0 217 26.5 407.5t85 363.5t170 274.5t265.5 101.5q186 0 265 -113.5t79 -378.5q0 -217 -26.5 -407.5t-85 -363.5t-170 -274t-265.5 -101q-186 0 -265 113.5t-79 377.5zM219 473q0 -207 50 -290t173 -83q109 0 190 99.5t124 259t63.5 326.5t20.5 339 q0 207 -51.5 290t-174.5 83q-109 0 -189.5 -99.5t-122.5 -259t-62.5 -327.5t-20.5 -338zM504 2109h145l49 -426h-125z" />
<glyph unicode="&#xd3;" horiz-adv-x="1028" d="M84 471q0 217 26.5 407.5t85 363.5t170 274.5t265.5 101.5q186 0 265 -113.5t79 -378.5q0 -217 -26.5 -407.5t-85 -363.5t-170 -274t-265.5 -101q-186 0 -265 113.5t-79 377.5zM219 473q0 -207 50 -290t173 -83q109 0 190 99.5t124 259t63.5 326.5t20.5 339 q0 207 -51.5 290t-174.5 83q-109 0 -189.5 -99.5t-122.5 -259t-62.5 -327.5t-20.5 -338zM575 1683l156 426h146l-177 -426h-125z" />
<glyph unicode="&#xd4;" horiz-adv-x="1028" d="M84 471q0 217 26.5 407.5t85 363.5t170 274.5t265.5 101.5q186 0 265 -113.5t79 -378.5q0 -217 -26.5 -407.5t-85 -363.5t-170 -274t-265.5 -101q-186 0 -265 113.5t-79 377.5zM219 473q0 -207 50 -290t173 -83q109 0 190 99.5t124 259t63.5 326.5t20.5 339 q0 207 -51.5 290t-174.5 83q-109 0 -189.5 -99.5t-122.5 -259t-62.5 -327.5t-20.5 -338zM354 1683l260 426h152l154 -426h-109l-133 326l-215 -326h-109z" />
<glyph unicode="&#xd5;" horiz-adv-x="1028" d="M84 471q0 217 26.5 407.5t85 363.5t170 274.5t265.5 101.5q186 0 265 -113.5t79 -378.5q0 -217 -26.5 -407.5t-85 -363.5t-170 -274t-265.5 -101q-186 0 -265 113.5t-79 377.5zM219 473q0 -207 50 -290t173 -83q109 0 190 99.5t124 259t63.5 326.5t20.5 339 q0 207 -51.5 290t-174.5 83q-109 0 -189.5 -99.5t-122.5 -259t-62.5 -327.5t-20.5 -338zM336 1806q18 106 70 168q50 59 122 60h4q55 -2 101.5 -39t84.5 -74t73 -39h5q39 0 59 29q22 31 36 96l96 -14q-20 -109 -72 -169q-50 -58 -123 -59h-6q-70 2 -144.5 76t-113.5 76h-4 q-37 0 -58 -31q-22 -33 -34 -94z" />
<glyph unicode="&#xd6;" horiz-adv-x="1032" d="M84 471q0 217 26.5 407.5t85 363.5t170 274.5t265.5 101.5q186 0 265 -113.5t79 -378.5q0 -217 -26.5 -407.5t-85 -363.5t-170 -274t-265.5 -101q-186 0 -265 113.5t-79 377.5zM219 473q0 -207 50 -290t173 -83q109 0 190 99.5t124 259t63.5 326.5t20.5 339 q0 207 -51.5 290t-174.5 83q-109 0 -189.5 -99.5t-122.5 -259t-62.5 -327.5t-20.5 -338zM414 1843l18 156h156l-19 -156h-155zM750 1843l18 156h156l-19 -156h-155z" />
<glyph unicode="&#xd7;" horiz-adv-x="1474" d="M213 362l436 437l-436 436l88 88l436 -436l437 436l88 -88l-437 -436l437 -437l-88 -88l-437 437l-436 -437z" />
<glyph unicode="&#xd8;" horiz-adv-x="1032" d="M37 0l88 162q-41 109 -41 309q0 217 26.5 407.5t85 363.5t170 274.5t265.5 101.5q162 0 241 -86l37 65h117l-92 -167q41 -109 41 -304q0 -217 -26.5 -407.5t-85 -363.5t-170 -274t-265.5 -101q-162 0 -242 81l-32 -61h-117zM219 473q0 -72 6 -129l574 1051 q-49 102 -185 102q-109 0 -189.5 -99.5t-122.5 -259t-62.5 -327.5t-20.5 -338zM262 199q49 -98 180 -99q109 0 190 99.5t124 259t63.5 326.5t20.5 339q0 68 -6 121z" />
<glyph unicode="&#xd9;" horiz-adv-x="1028" d="M76 399l147 1198h137l-145 -1194q-7 -57 -7 -102q0 -89 26 -134q40 -69 206 -69t224.5 69t78.5 236l146 1194h137l-147 -1198q-27 -221 -121 -321.5t-332 -100.5t-307 100q-50 72 -51 208q1 52 8 114zM506 2109h145l49 -426h-125z" />
<glyph unicode="&#xda;" horiz-adv-x="1028" d="M76 399l147 1198h137l-145 -1194q-7 -57 -7 -102q0 -89 26 -134q40 -69 206 -69t224.5 69t78.5 236l146 1194h137l-147 -1198q-27 -221 -121 -321.5t-332 -100.5t-307 100q-50 72 -51 208q1 52 8 114zM569 1683l156 426h145l-176 -426h-125z" />
<glyph unicode="&#xdb;" horiz-adv-x="1028" d="M76 399l147 1198h137l-145 -1194q-7 -57 -7 -102q0 -89 26 -134q40 -69 206 -69t224.5 69t78.5 236l146 1194h137l-147 -1198q-27 -221 -121 -321.5t-332 -100.5t-307 100q-50 72 -51 208q1 52 8 114zM352 1683l260 426h152l154 -426h-109l-133 326l-215 -326h-109z" />
<glyph unicode="&#xdc;" horiz-adv-x="1032" d="M80 399l147 1198h138l-146 -1194q-7 -57 -7 -102q0 -89 27 -134q40 -69 205.5 -69t224 69t79.5 236l145 1194h137l-147 -1198q-27 -221 -121 -321.5t-331.5 -100.5t-307.5 100q-50 72 -50 208q0 52 7 114zM414 1843l18 156h156l-19 -156h-155zM750 1843l18 156h156 l-19 -156h-155z" />
<glyph unicode="&#xdd;" horiz-adv-x="991" d="M156 1597h143l207 -839l412 839h141l-506 -993l-72 -604h-135l76 604zM551 1683l156 426h145l-176 -426h-125z" />
<glyph unicode="&#xde;" horiz-adv-x="907" d="M39 0l194 1597h136l-39 -327h202q154 0 238 -79t84 -269q0 -178 -35 -300t-100.5 -183.5t-137 -86t-163.5 -24.5h-205l-39 -328h-135zM227 449h195q139 0 217 99t78 357q0 129 -52.5 186.5t-156.5 57.5h-195z" />
<glyph unicode="&#xdf;" horiz-adv-x="1101" d="M-18 -410l206 1684q25 209 136.5 297t330.5 88q356 0 357 -260q0 -145 -62.5 -231.5t-193.5 -141.5q-53 -23 -77 -35t-61.5 -40.5t-53 -67.5t-15.5 -92q0 -78 38 -111t146 -59q137 -37 201.5 -91.5t64.5 -181.5q0 -369 -401 -368q-156 0 -228 63q-58 51 -58 156 q0 27 3 57l131 43q-4 -31 -4 -58q0 -63 24 -102q34 -55 142 -55q133 0 188.5 61.5t55.5 176.5q0 90 -48 127.5t-161 68.5q-117 29 -174 79t-57 165q0 84 20.5 144.5t65.5 99t75.5 55t90.5 41.5q117 47 169 100t52 166q0 170 -240 170q-158 0 -232.5 -64.5t-90.5 -193.5 l-207 -1690h-133z" />
<glyph unicode="&#xe0;" horiz-adv-x="958" d="M59 340q0 145 18.5 270t63.5 243t133.5 185.5t210.5 67.5q174 0 271 -154l28 133h115l-35 -237l-73 -610l-25 -238h-115l2 133q-131 -154 -307 -153q-154 0 -220.5 90t-66.5 270zM197 352q0 -127 43 -190.5t147 -63.5q133 0 270 154l72 582q-94 154 -231 153 q-92 0 -155.5 -60.5t-93.5 -162.5t-41 -200.5t-11 -211.5zM412 1638h145l49 -426h-125z" />
<glyph unicode="&#xe1;" horiz-adv-x="958" d="M59 340q0 145 18.5 270t63.5 243t133.5 185.5t210.5 67.5q174 0 271 -154l28 133h115l-35 -237l-73 -610l-25 -238h-115l2 133q-131 -154 -307 -153q-154 0 -220.5 90t-66.5 270zM197 352q0 -127 43 -190.5t147 -63.5q133 0 270 154l72 582q-94 154 -231 153 q-92 0 -155.5 -60.5t-93.5 -162.5t-41 -200.5t-11 -211.5zM475 1212l156 426h145l-176 -426h-125z" />
<glyph unicode="&#xe2;" horiz-adv-x="958" d="M59 340q0 145 18.5 270t63.5 243t133.5 185.5t210.5 67.5q174 0 271 -154l28 133h115l-35 -237l-73 -610l-25 -238h-115l2 133q-131 -154 -307 -153q-154 0 -220.5 90t-66.5 270zM197 352q0 -127 43 -190.5t147 -63.5q133 0 270 154l72 582q-94 154 -231 153 q-92 0 -155.5 -60.5t-93.5 -162.5t-41 -200.5t-11 -211.5zM258 1212l260 426h152l153 -426h-108l-133 326l-215 -326h-109z" />
<glyph unicode="&#xe3;" horiz-adv-x="958" d="M59 340q0 145 18.5 270t63.5 243t133 185.5t211 67.5q174 0 271 -154l28 133h115l-35 -237l-73 -610l-25 -238h-115l2 133q-131 -154 -307 -153q-154 0 -220.5 90t-66.5 270zM197 352q0 -127 43 -190.5t147 -63.5q133 0 270 154l72 582q-94 154 -231 153 q-92 0 -155.5 -60.5t-93.5 -162.5t-41 -200.5t-11 -211.5zM240 1335q18 106 68 168q49 59 123 60h5q43 -2 82 -26t62.5 -50.5t54.5 -50t59 -25.5h6q39 0 59 29q22 31 36 96l96 -14q-23 -109 -73 -169q-49 -58 -123 -59h-5q-70 2 -144.5 76t-113.5 76h-5q-39 0 -58 -30 q-20 -32 -33 -95z" />
<glyph unicode="&#xe4;" horiz-adv-x="958" d="M59 340q0 145 18.5 270t63.5 243t133.5 185.5t210.5 67.5q174 0 271 -154l28 133h115l-35 -237l-73 -610l-25 -238h-115l2 133q-131 -154 -307 -153q-154 0 -220.5 90t-66.5 270zM197 352q0 -127 43 -190.5t147 -63.5q133 0 270 154l72 582q-94 154 -231 153 q-92 0 -155.5 -60.5t-93.5 -162.5t-41 -200.5t-11 -211.5zM315 1372l19 156h155l-18 -156h-156zM651 1372l19 156h155l-18 -156h-156z" />
<glyph unicode="&#xe5;" horiz-adv-x="958" d="M59 340q0 145 18.5 270t63.5 243t133.5 185.5t210.5 67.5q174 0 271 -154l28 133h115l-35 -237l-73 -610l-25 -238h-115l2 133q-131 -154 -307 -153q-154 0 -220.5 90t-66.5 270zM197 352q0 -127 43 -190.5t147 -63.5q133 0 270 154l72 582q-94 154 -231 153 q-92 0 -155.5 -60.5t-93.5 -162.5t-41 -200.5t-11 -211.5zM330 1389q0 117 73.5 194.5t192.5 77.5q100 0 154.5 -53.5t54.5 -145.5q0 -117 -74 -194.5t-192 -77.5q-100 0 -154.5 53.5t-54.5 145.5zM420 1395q0 -121 129 -121q78 0 122 49t44 133q0 121 -129 121 q-78 0 -122 -49t-44 -133z" />
<glyph unicode="&#xe6;" horiz-adv-x="1478" d="M29 240q0 358 426 358h196l29 223q3 22 3 41q0 139 -181 139q-109 0 -160 -50t-68 -160l-129 45q23 137 107 203.5t262 66.5q229 0 272 -148q100 147 301 148q170 0 240 -83t70 -257q0 -59 -17 -223l-6 -45h-594q-14 -70 -14 -166q0 -125 45 -183.5t154 -58.5 q123 0 174 52.5t63 156.5l131 -47q-25 -131 -110.5 -201.5t-268.5 -70.5q-233 0 -292 178q-156 -178 -367 -178q-133 0 -199.5 69.5t-66.5 190.5zM168 256q0 -164 168 -164q184 0 295 182q0 2 -1 27t-1 43q0 72 10 154h-182q-141 0 -215 -54.5t-74 -187.5zM791 598h452 q14 92 14 178q0 113 -40.5 166t-143.5 53q-133 0 -193 -90t-89 -307z" />
<glyph unicode="&#xe7;" horiz-adv-x="868" d="M63 375q0 336 111 533.5t350 197.5q152 0 231 -67q65 -55 65 -165q0 -23 -3 -49l-135 -45q2 22 2 42q0 79 -27 119q-33 50 -141 50q-92 0 -157.5 -56t-99.5 -151.5t-48 -192.5t-14 -206q0 -158 49 -224.5t155 -66.5q117 0 164 53.5t60 157.5l125 -43 q-20 -131 -97.5 -203.5t-242.5 -78.5l-23 -62q104 -18 157 -62q42 -36 42 -92q0 -13 -2 -28q-12 -84 -82 -126t-172 -42q-119 0 -178 37l36 80q49 -31 115 -35h12q140 0 152 92q4 33 -10.5 54.5t-52 33.5t-60 17.5t-74.5 11.5l58 123q-139 14 -202 106t-63 287z" />
<glyph unicode="&#xe8;" horiz-adv-x="909" d="M61 379q0 727 457 727q170 0 239.5 -84t69.5 -260q0 -88 -22 -268h-596q-12 -92 -12 -164q0 -123 45 -181.5t155 -58.5q123 0 173.5 52.5t62.5 156.5l129 -45q-20 -131 -106.5 -202.5t-270.5 -71.5q-180 0 -252 94t-72 305zM223 602h455q12 94 12 168q0 115 -42 170 t-146 55q-131 0 -195 -97t-84 -296zM399 1638h146l49 -426h-125z" />
<glyph unicode="&#xe9;" horiz-adv-x="909" d="M61 379q0 727 457 727q170 0 239.5 -84t69.5 -260q0 -88 -22 -268h-596q-12 -92 -12 -164q0 -123 45 -181.5t155 -58.5q123 0 173.5 52.5t62.5 156.5l129 -45q-20 -131 -106.5 -202.5t-270.5 -71.5q-180 0 -252 94t-72 305zM223 602h455q12 94 12 168q0 115 -42 170 t-146 55q-131 0 -195 -97t-84 -296zM463 1212l155 426h146l-176 -426h-125z" />
<glyph unicode="&#xea;" horiz-adv-x="909" d="M61 379q0 727 457 727q170 0 239.5 -84t69.5 -260q0 -88 -22 -268h-596q-12 -92 -12 -164q0 -123 45 -181.5t155 -58.5q123 0 173.5 52.5t62.5 156.5l129 -45q-20 -131 -106.5 -202.5t-270.5 -71.5q-180 0 -252 94t-72 305zM223 602h455q12 94 12 168q0 115 -42 170 t-146 55q-131 0 -195 -97t-84 -296zM246 1212l260 426h151l154 -426h-109l-133 326l-215 -326h-108z" />
<glyph unicode="&#xeb;" horiz-adv-x="909" d="M61 379q0 727 457 727q170 0 239.5 -84t69.5 -260q0 -88 -22 -268h-596q-12 -92 -12 -164q0 -123 45 -181.5t155 -58.5q123 0 173.5 52.5t62.5 156.5l129 -45q-20 -131 -106.5 -202.5t-270.5 -71.5q-180 0 -252 94t-72 305zM223 602h455q12 94 12 168q0 115 -42 170 t-146 55q-131 0 -195 -97t-84 -296zM303 1372l19 156h155l-18 -156h-156zM639 1372l18 156h156l-18 -156h-156z" />
<glyph unicode="&#xec;" horiz-adv-x="368" d="M37 0l133 1085h131l-133 -1085h-131zM117 1638h145l49 -426h-125z" />
<glyph unicode="&#xed;" horiz-adv-x="368" d="M37 0l133 1085h131l-133 -1085h-131zM190 1212l156 426h146l-177 -426h-125z" />
<glyph unicode="&#xee;" horiz-adv-x="368" d="M-33 1212l260 426h152l153 -426h-108l-133 326l-215 -326h-109zM37 0l133 1085h131l-133 -1085h-131z" />
<glyph unicode="&#xef;" horiz-adv-x="368" d="M25 1372l18 156h156l-19 -156h-155zM37 0l133 1085h131l-133 -1085h-131zM360 1372l19 156h156l-19 -156h-156z" />
<glyph unicode="&#xf0;" horiz-adv-x="942" d="M61 369q0 74 7.5 147.5t24 160.5t49 160.5t77.5 135t117 97.5t160 36q174 0 233 -139q-31 252 -158 417l-352 -127l12 105l275 98q-109 104 -266 178h202q109 -66 181 -137l284 105l-12 -105l-207 -76q168 -219 168 -589q0 -131 -18 -281q-39 -317 -144.5 -446 t-308.5 -129q-166 0 -245 93t-79 296zM199 387q0 -293 200 -293q96 0 164 64.5t96.5 171t40 197.5t11.5 190q0 145 -49.5 209.5t-151.5 64.5q-80 0 -138.5 -43t-91 -105.5t-52 -150.5t-24.5 -157.5t-5 -147.5z" />
<glyph unicode="&#xf1;" horiz-adv-x="931" d="M33 0l102 848l25 237h114l-4 -133q131 154 348 154q127 0 188 -67q49 -54 49 -133q0 -19 -3 -40l-104 -866h-132l101 825q2 16 2 31q0 53 -29 87q-37 44 -127 44q-180 0 -297 -149l-102 -838h-131zM233 1335q18 106 69 168q49 59 123 60h5q43 -2 82 -26t62.5 -50.5 t54 -50t59.5 -25.5h5q39 0 60 29q22 31 35 96l97 -14q-23 -109 -73 -169q-49 -58 -123 -59h-5q-70 2 -144.5 76t-113.5 76h-5q-39 0 -59 -30q-20 -32 -32 -95z" />
<glyph unicode="&#xf2;" horiz-adv-x="942" d="M61 367q0 106 10.5 200.5t41 196.5t80 175t134.5 120t197 47q164 0 244 -88t80 -299q0 -106 -10.5 -200.5t-41 -197t-79.5 -175t-134 -119.5t-198 -47q-164 0 -244 88t-80 299zM197 381q0 -154 49 -220.5t153 -66.5q80 0 139.5 47t91.5 115t52 158t25.5 157.5t5.5 133.5 q0 154 -49.5 220t-153.5 66q-80 0 -139.5 -47t-91 -114.5t-52 -157.5t-25.5 -157.5t-5 -133.5zM408 1638h145l49 -426h-125z" />
<glyph unicode="&#xf3;" horiz-adv-x="942" d="M61 367q0 106 10.5 200.5t41 196.5t80 175t134.5 120t197 47q164 0 244 -88t80 -299q0 -106 -10.5 -200.5t-41 -197t-79.5 -175t-134 -119.5t-198 -47q-164 0 -244 88t-80 299zM197 381q0 -154 49 -220.5t153 -66.5q80 0 139.5 47t91.5 115t52 158t25.5 157.5t5.5 133.5 q0 154 -49.5 220t-153.5 66q-80 0 -139.5 -47t-91 -114.5t-52 -157.5t-25.5 -157.5t-5 -133.5zM471 1212l156 426h145l-176 -426h-125z" />
<glyph unicode="&#xf4;" horiz-adv-x="942" d="M61 367q0 106 10.5 200.5t41 196.5t80 175t134.5 120t197 47q164 0 244 -88t80 -299q0 -106 -10.5 -200.5t-41 -197t-79.5 -175t-134 -119.5t-198 -47q-164 0 -244 88t-80 299zM197 381q0 -154 49 -220.5t153 -66.5q80 0 139.5 47t91.5 115t52 158t25.5 157.5t5.5 133.5 q0 154 -49.5 220t-153.5 66q-80 0 -139.5 -47t-91 -114.5t-52 -157.5t-25.5 -157.5t-5 -133.5zM254 1212l260 426h152l153 -426h-108l-133 326l-216 -326h-108z" />
<glyph unicode="&#xf5;" horiz-adv-x="942" d="M61 367q0 106 10.5 200.5t41 196.5t80 175t134.5 120t197 47q164 0 244 -88t80 -299q0 -106 -10.5 -200.5t-41 -197t-79.5 -175t-134 -119.5t-198 -47q-164 0 -244 88t-80 299zM197 381q0 -154 49 -220.5t153 -66.5q80 0 139.5 47t91 115t52 158t26 157.5t5.5 133.5 q0 154 -49.5 220t-153.5 66q-80 0 -139.5 -47t-91 -114.5t-52 -157.5t-25.5 -157.5t-5 -133.5zM236 1335q18 106 68 168q49 59 123 60h5q43 -2 82 -26t62.5 -50.5t54.5 -50t59 -25.5h5q39 0 60 29q22 31 36 96l96 -14q-23 -109 -73 -169q-49 -58 -123 -59h-5 q-70 2 -144.5 76t-113.5 76h-5q-39 0 -58 -30q-20 -32 -33 -95z" />
<glyph unicode="&#xf6;" horiz-adv-x="942" d="M61 367q0 106 10.5 200.5t41 196.5t80 175t134.5 120t197 47q164 0 244 -88t80 -299q0 -106 -10.5 -200.5t-41 -197t-79.5 -175t-134 -119.5t-198 -47q-164 0 -244 88t-80 299zM197 381q0 -154 49 -220.5t153 -66.5q80 0 139.5 47t91.5 115t52 158t25.5 157.5t5.5 133.5 q0 154 -49.5 220t-153.5 66q-80 0 -139.5 -47t-91 -114.5t-52 -157.5t-25.5 -157.5t-5 -133.5zM311 1372l19 156h155l-18 -156h-156zM647 1372l19 156h155l-18 -156h-156z" />
<glyph unicode="&#xf7;" horiz-adv-x="1474" d="M184 737v123h1106v-123h-1106zM649 256v174h176v-174h-176zM649 1167v174h176v-174h-176z" />
<glyph unicode="&#xf8;" horiz-adv-x="942" d="M31 0l78 113q-47 90 -48 254q0 106 10.5 200.5t41 196.5t80 175t134.5 120t197 47q154 0 230 -76l39 55h88l-82 -114q49 -90 49 -252q0 -106 -10.5 -200.5t-41 -197t-79.5 -175t-134 -119.5t-198 -47q-156 0 -229 71l-37 -51h-88zM197 381q0 -82 10 -129l463 659 q-47 80 -160 80q-80 0 -139.5 -47t-91 -114.5t-52 -157.5t-25.5 -157.5t-5 -133.5zM240 170q47 -76 159 -76q80 0 139.5 47t91.5 115t52 158t25.5 157.5t5.5 133.5q0 74 -13 124z" />
<glyph unicode="&#xf9;" horiz-adv-x="929" d="M47 219l107 866h131l-103 -825q-2 -16 -2 -30q0 -132 154 -132q182 0 297 150l104 837h131l-104 -847l-23 -238h-112l2 133q-131 -154 -350 -153q-127 0 -187 66q-48 54 -48 133q0 19 3 40zM397 1638h146l49 -426h-125z" />
<glyph unicode="&#xfa;" horiz-adv-x="929" d="M47 219l107 866h131l-103 -825q-2 -16 -2 -30q0 -132 154 -132q182 0 297 150l104 837h131l-104 -847l-23 -238h-112l2 133q-131 -154 -350 -153q-127 0 -187 66q-48 54 -48 133q0 19 3 40zM461 1212l155 426h146l-176 -426h-125z" />
<glyph unicode="&#xfb;" horiz-adv-x="929" d="M47 219l107 866h131l-103 -825q-2 -16 -2 -30q0 -132 154 -132q182 0 297 150l104 837h131l-104 -847l-23 -238h-112l2 133q-131 -154 -350 -153q-127 0 -187 66q-48 54 -48 133q0 19 3 40zM244 1212l260 426h151l154 -426h-109l-133 326l-215 -326h-108z" />
<glyph unicode="&#xfc;" horiz-adv-x="929" d="M47 219l107 866h131l-103 -825q-2 -16 -2 -30q0 -132 154 -132q182 0 297 150l104 837h131l-104 -847l-23 -238h-112l2 133q-131 -154 -350 -153q-127 0 -187 66q-48 54 -48 133q0 19 3 40zM301 1372l18 156h156l-18 -156h-156zM637 1372l18 156h156l-18 -156h-156z" />
<glyph unicode="&#xfd;" horiz-adv-x="882" d="M90 -410l199 422l-178 1073h141l129 -907l352 907h141l-425 -1022l-211 -473h-148zM440 1212l156 426h145l-176 -426h-125z" />
<glyph unicode="&#xfe;" horiz-adv-x="958" d="M-20 -410l251 2048h134l-84 -671q127 139 294 139q154 0 220.5 -90t66.5 -271q0 -145 -18.5 -270t-63.5 -242.5t-133 -185t-211 -67.5q-168 0 -260 139l-63 -529h-133zM195 252q96 -154 231 -154q90 0 153.5 60.5t93 163t41 201t11.5 210.5q0 127 -43 190.5t-147 63.5 q-137 0 -271 -153z" />
<glyph unicode="&#xff;" horiz-adv-x="882" d="M90 -410l199 422l-178 1073h141l129 -907l352 907h141l-425 -1022l-211 -473h-148zM281 1372l18 156h156l-19 -156h-155zM616 1372l19 156h156l-19 -156h-156z" />
<glyph unicode="&#x152;" horiz-adv-x="1464" d="M88 498q0 547 146.5 823t490.5 276h737l-14 -120h-498l-73 -596h430l-15 -121h-430l-78 -639h535l-14 -121h-758q-254 0 -356.5 107.5t-102.5 390.5zM223 504q0 -217 69.5 -300t250.5 -83h106l166 1356h-108q-484 0 -484 -973z" />
<glyph unicode="&#x153;" horiz-adv-x="1533" d="M61 367q0 106 10.5 200.5t41 196.5t80 175t134.5 120t197 47q117 0 184.5 -44t96.5 -147q109 190 338 191q170 0 239.5 -84t69.5 -260q0 -88 -22 -268h-596q-12 -92 -13 -164q0 -123 45 -181.5t156 -58.5q123 0 173 52.5t62 156.5l129 -45q-20 -131 -106 -202.5 t-270 -71.5q-127 0 -194.5 46t-90.5 146q-111 -193 -340 -192q-164 0 -244 88t-80 299zM197 381q0 -154 49 -220.5t153 -66.5q80 0 139.5 47t91 115t52 158t26 157.5t5.5 133.5q0 154 -49.5 220t-153.5 66q-80 0 -139.5 -47t-91 -114.5t-52 -157.5t-25.5 -157.5t-5 -133.5z M848 602h455q12 94 12 168q0 115 -42 170t-147 55q-131 0 -194.5 -97t-83.5 -296z" />
<glyph unicode="&#x178;" horiz-adv-x="991" d="M156 1597h143l207 -839l412 839h141l-506 -993l-72 -604h-135l76 604zM391 1843l19 156h155l-18 -156h-156zM727 1843l18 156h156l-18 -156h-156z" />
<glyph unicode="&#x2c6;" horiz-adv-x="1269" d="M418 1212l260 426h151l154 -426h-109l-133 326l-215 -326h-108z" />
<glyph unicode="&#x2dc;" horiz-adv-x="1269" d="M399 1335q41 227 191 228q45 0 85 -23.5t65.5 -52.5t57 -52.5t62.5 -23.5q68 0 92 125l99 -14q-45 -227 -193 -228q-72 0 -150.5 76t-121.5 76q-68 0 -90 -125z" />
<glyph unicode="&#x2000;" />
<glyph unicode="&#x2001;" horiz-adv-x="2131" />
<glyph unicode="&#x2002;" />
<glyph unicode="&#x2003;" horiz-adv-x="2131" />
<glyph unicode="&#x2004;" horiz-adv-x="710" />
<glyph unicode="&#x2005;" horiz-adv-x="532" />
<glyph unicode="&#x2006;" horiz-adv-x="354" />
<glyph unicode="&#x2007;" horiz-adv-x="354" />
<glyph unicode="&#x2008;" horiz-adv-x="266" />
<glyph unicode="&#x2009;" horiz-adv-x="425" />
<glyph unicode="&#x200a;" horiz-adv-x="116" />
<glyph unicode="&#x2010;" horiz-adv-x="792" d="M115 625l14 123h551l-14 -123h-551z" />
<glyph unicode="&#x2011;" horiz-adv-x="792" d="M115 625l14 123h551l-14 -123h-551z" />
<glyph unicode="&#x2012;" horiz-adv-x="792" d="M115 625l14 123h551l-14 -123h-551z" />
<glyph unicode="&#x2013;" d="M115 625l14 123h823l-14 -123h-823z" />
<glyph unicode="&#x2014;" horiz-adv-x="2088" d="M115 625l14 123h1847l-14 -123h-1847z" />
<glyph unicode="&#x2018;" horiz-adv-x="337" d="M90 1085l170 512h98l-98 -512h-170z" />
<glyph unicode="&#x2019;" horiz-adv-x="337" d="M143 1085l99 512h168l-168 -512h-99z" />
<glyph unicode="&#x201a;" horiz-adv-x="337" d="M-41 -336l100 512h168l-172 -512h-96z" />
<glyph unicode="&#x201c;" horiz-adv-x="587" d="M90 1085l170 512h98l-98 -512h-170zM346 1085l170 512h96l-98 -512h-168z" />
<glyph unicode="&#x201d;" horiz-adv-x="593" d="M143 1085l99 512h168l-168 -512h-99zM397 1085l99 512h170l-170 -512h-99z" />
<glyph unicode="&#x201e;" horiz-adv-x="591" d="M-41 -336l100 512h168l-172 -512h-96zM213 -336l100 512h168l-172 -512h-96z" />
<glyph unicode="&#x2022;" horiz-adv-x="833" d="M102 406l68 561h563l-67 -561h-564z" />
<glyph unicode="&#x2026;" horiz-adv-x="2121" d="M217 0l21 172h172l-21 -172h-172zM893 0l20 172h172l-20 -172h-172zM1569 0l20 172h172l-20 -172h-172z" />
<glyph unicode="&#x202f;" horiz-adv-x="425" />
<glyph unicode="&#x2039;" horiz-adv-x="655" d="M96 600l13 90l464 322l-14 -125l-326 -242l267 -242l-17 -124z" />
<glyph unicode="&#x203a;" horiz-adv-x="655" d="M74 279l16 124l324 242l-264 242l14 125l387 -322l-12 -90z" />
<glyph unicode="&#x205f;" horiz-adv-x="532" />
<glyph unicode="&#x20ac;" horiz-adv-x="1110" d="M82 602l12 98h142q0 29 8 78l10 86h-139l12 99h143q57 348 166 485t338 137q207 0 274 -94q53 -76 53 -219q0 -35 -3 -74l-144 -47q7 64 7 116q0 26 -2 50q-5 70 -54 109.5t-151 39.5q-162 0 -233.5 -110.5t-114.5 -392.5h473l-43 -99h-445l-10 -86l-10 -78h389l-43 -98 h-357q-10 -127 -10 -199q0 -166 52.5 -235.5t183.5 -69.5q143 0 200.5 71t77.5 245l129 -45q-27 -203 -117 -296t-301 -93q-197 0 -277.5 94t-82.5 325q0 76 10 203h-143z" />
<glyph unicode="&#x2122;" horiz-adv-x="1146" d="M125 1530l8 67h412l-8 -67h-170l-60 -486h-71l59 486h-170zM571 1044l68 553h70l104 -344l29 -110l57 110l186 344h70l-68 -553h-67l37 293l14 103l-45 -86l-168 -310h-57l-90 310l-25 86l-10 -103l-37 -293h-68z" />
<glyph unicode="&#xe000;" horiz-adv-x="1085" d="M0 1085h1085v-1085h-1085v1085z" />
<glyph unicode="&#xe38c;" horiz-adv-x="976" d="M53 -410l170 1383h-125l15 112h125l43 361q27 213 272 213q76 0 129 -21l-25 -116q-55 20 -102 20q-66 0 -101.5 -24.5t-43.5 -94.5l-41 -338h215l-15 -112h-215l-170 -1383h-131zM645 0l133 1085h131l-133 -1085h-131zM801 1372l18 156h156l-19 -156h-155z" />
<glyph unicode="&#xfb01;" horiz-adv-x="976" d="M53 -410l170 1383h-125l15 112h125l43 361q27 213 272 213q76 0 129 -21l-25 -116q-55 20 -102 20q-66 0 -101.5 -24.5t-43.5 -94.5l-41 -338h215l-15 -112h-215l-170 -1383h-131zM645 0l133 1085h131l-133 -1085h-131zM801 1372l18 156h156l-19 -156h-155z" />
<glyph unicode="&#xe38d;" horiz-adv-x="976" d="M53 -410l170 1383h-125l15 112h125l43 361q27 213 272 213q76 0 129 -21l-25 -116q-55 20 -102 20q-66 0 -101.5 -24.5t-43.5 -94.5l-41 -338h215l-15 -112h-215l-170 -1383h-131zM645 0l201 1638h131l-201 -1638h-131z" />
<glyph unicode="&#xfb02;" horiz-adv-x="976" d="M53 -410l170 1383h-125l15 112h125l43 361q27 213 272 213q76 0 129 -21l-25 -116q-55 20 -102 20q-66 0 -101.5 -24.5t-43.5 -94.5l-41 -338h215l-15 -112h-215l-170 -1383h-131zM645 0l201 1638h131l-201 -1638h-131z" />
<glyph unicode="&#xfb03;" horiz-adv-x="1585" d="M53 -410l170 1383h-125l15 112h125l43 361q27 213 272 213q76 0 129 -21l-25 -116q-55 20 -102 20q-66 0 -101.5 -24.5t-43.5 -94.5l-41 -338h215l-15 -112h-215l-170 -1383h-131zM662 -410l169 1383h-124l14 112h125l43 361q27 213 272 213q76 0 129 -21l-24 -116 q-55 20 -103 20q-66 0 -101.5 -24.5t-43.5 -94.5l-41 -338h215l-14 -112h-215l-170 -1383h-131zM1253 0l133 1085h132l-134 -1085h-131zM1409 1372l18 156h156l-18 -156h-156z" />
<glyph unicode="&#xfb04;" horiz-adv-x="1585" d="M53 -410l170 1383h-125l15 112h125l43 361q27 213 272 213q76 0 129 -21l-25 -116q-55 20 -102 20q-66 0 -101.5 -24.5t-43.5 -94.5l-41 -338h215l-15 -112h-215l-170 -1383h-131zM662 -410l169 1383h-124l14 112h125l43 361q27 213 272 213q76 0 129 -21l-24 -116 q-55 20 -103 20q-66 0 -101.5 -24.5t-43.5 -94.5l-41 -338h215l-14 -112h-215l-170 -1383h-131zM1253 0l201 1638h131l-201 -1638h-131z" />
</font>
</defs>
</svg>
